<svg width="158" height="156" viewBox="0 0 158 156" fill="none" xmlns="http://www.w3.org/2000/svg">
<g filter="url(#filter0_d)">
<rect x="4" width="150" height="147.059" rx="7.35294" fill="white"/>
<path d="M13.5928 30.8574V36.4119H14.3902V32.3897H14.4417L16.0799 36.4037H16.7417L18.3798 32.3924H18.4313V36.4119H19.2287V30.8574H18.2116L16.4433 35.1751H16.3782L14.6099 30.8574H13.5928ZM22.1368 36.4959C23.3112 36.4959 24.0787 35.6362 24.0787 34.3479C24.0787 33.0515 23.3112 32.1917 22.1368 32.1917C20.9624 32.1917 20.1949 33.0515 20.1949 34.3479C20.1949 35.6362 20.9624 36.4959 22.1368 36.4959ZM22.1395 35.8152C21.372 35.8152 21.014 35.1453 21.014 34.3452C21.014 33.5478 21.372 32.8698 22.1395 32.8698C22.9016 32.8698 23.2596 33.5478 23.2596 34.3452C23.2596 35.1453 22.9016 35.8152 22.1395 35.8152Z" fill="black"/>
<path d="M35.5749 31.5787H37.3053V36.4117H38.1406V31.5787H39.8737V30.8572H35.5749V31.5787ZM42.8306 34.6841C42.8333 35.392 42.3071 35.7283 41.8515 35.7283C41.3498 35.7283 41.0026 35.3649 41.0026 34.798V32.2459H40.1917V34.8956C40.1917 35.929 40.7585 36.466 41.5586 36.466C42.1851 36.466 42.6109 36.1351 42.8035 35.6903H42.8469V36.4117H43.6442V32.2459H42.8306V34.6841Z" fill="black"/>
<path d="M56.6448 36.4117H57.491L58.6599 32.2513H58.7033L59.8722 36.4117H60.7157L62.2589 30.8572H61.3748L60.2953 35.1614H60.2438L59.1182 30.8572H58.2449L57.1194 35.1587H57.0679L55.9857 30.8572H55.1043L56.6448 36.4117ZM64.3432 36.4958C65.2518 36.4958 65.8946 36.0483 66.079 35.3703L65.3115 35.232C65.165 35.6252 64.8124 35.8259 64.3514 35.8259C63.657 35.8259 63.1906 35.3757 63.1689 34.5729H66.1305V34.2854C66.1305 32.7802 65.2301 32.1916 64.2863 32.1916C63.1255 32.1916 62.3606 33.0758 62.3606 34.3559C62.3606 35.6496 63.1146 36.4958 64.3432 36.4958ZM63.1716 33.9654C63.2041 33.3741 63.6326 32.8615 64.2917 32.8615C64.9209 32.8615 65.3332 33.328 65.3359 33.9654H63.1716Z" fill="black"/>
<path d="M77.5896 31.5787H79.3199V36.4117H80.1553V31.5787H81.8883V30.8572H77.5896V31.5787ZM83.5841 33.9383C83.5841 33.2738 84.0045 32.8941 84.5822 32.8941C85.1409 32.8941 85.4745 33.2494 85.4745 33.8596V36.4117H86.2854V33.762C86.2854 32.7232 85.7159 32.1916 84.8588 32.1916C84.2106 32.1916 83.8201 32.4737 83.6248 32.9239H83.5733V30.8572H82.7732V36.4117H83.5841V33.9383Z" fill="black"/>
<path d="M97.9053 36.4117H98.7433V33.9898H101.103V33.2711H98.7433V31.5787H101.35V30.8572H97.9053V36.4117ZM102.263 36.4117H103.074V33.8677C103.074 33.3226 103.494 32.9293 104.069 32.9293C104.237 32.9293 104.427 32.9592 104.492 32.9782V32.2025C104.411 32.1916 104.251 32.1835 104.148 32.1835C103.66 32.1835 103.242 32.4601 103.09 32.9076H103.047V32.2459H102.263V36.4117Z" fill="black"/>
<path d="M118.755 32.3164H119.564C119.539 31.4268 118.753 30.7813 117.624 30.7813C116.51 30.7813 115.655 31.4187 115.655 32.3761C115.655 33.149 116.209 33.6019 117.101 33.8433L117.757 34.0223C118.351 34.1796 118.81 34.3749 118.81 34.8685C118.81 35.411 118.292 35.769 117.578 35.769C116.933 35.769 116.396 35.4815 116.347 34.8767H115.506C115.56 35.8829 116.339 36.504 117.584 36.504C118.888 36.504 119.639 35.8178 119.639 34.8767C119.639 33.8759 118.747 33.488 118.042 33.3145L117.5 33.1734C117.066 33.0622 116.488 32.8588 116.491 32.3272C116.491 31.8553 116.922 31.5055 117.605 31.5055C118.243 31.5055 118.696 31.8038 118.755 32.3164ZM121.788 36.504C122.477 36.504 122.865 36.1541 123.019 35.8422H123.052V36.4117H123.844V33.6453C123.844 32.433 122.889 32.1916 122.228 32.1916C121.474 32.1916 120.779 32.4954 120.508 33.2548L121.27 33.4284C121.389 33.1327 121.693 32.848 122.238 32.848C122.762 32.848 123.03 33.1219 123.03 33.5938V33.6128C123.03 33.9084 122.727 33.903 121.978 33.9898C121.189 34.082 120.381 34.2881 120.381 35.2347C120.381 36.0537 120.996 36.504 121.788 36.504ZM121.964 35.853C121.506 35.853 121.175 35.6469 121.175 35.2455C121.175 34.8116 121.56 34.657 122.03 34.5946C122.293 34.5593 122.916 34.4888 123.033 34.3722V34.9092C123.033 35.4028 122.64 35.853 121.964 35.853Z" fill="black"/>
<path d="M138.388 32.3164H139.196C139.172 31.4268 138.385 30.7813 137.257 30.7813C136.142 30.7813 135.288 31.4187 135.288 32.3761C135.288 33.149 135.841 33.6019 136.734 33.8433L137.39 34.0223C137.984 34.1796 138.442 34.3749 138.442 34.8685C138.442 35.411 137.924 35.769 137.211 35.769C136.566 35.769 136.029 35.4815 135.98 34.8767H135.139C135.193 35.8829 135.972 36.504 137.216 36.504C138.521 36.504 139.272 35.8178 139.272 34.8767C139.272 33.8759 138.38 33.488 137.675 33.3145L137.132 33.1734C136.698 33.0622 136.121 32.8588 136.123 32.3272C136.123 31.8553 136.555 31.5055 137.238 31.5055C137.875 31.5055 138.328 31.8038 138.388 32.3164ZM142.848 34.6841C142.85 35.392 142.324 35.7283 141.868 35.7283C141.367 35.7283 141.02 35.3649 141.02 34.798V32.2459H140.209V34.8956C140.209 35.929 140.775 36.466 141.576 36.466C142.202 36.466 142.628 36.1351 142.82 35.6903H142.864V36.4117H143.661V32.2459H142.848V34.6841Z" fill="black"/>
<path d="M82.7138 49.1455H81.8975L80.5116 50.0513V50.8541L81.8405 49.9862H81.8731V54.7H82.7138V49.1455Z" fill="#666666"/>
<path d="M99.3225 54.7H102.978V53.9812H100.478V53.9405L101.582 52.7852C102.599 51.7573 102.889 51.2664 102.889 50.6453C102.889 49.753 102.162 49.0695 101.115 49.0695C100.076 49.0695 99.317 49.7421 99.317 50.7565H100.117C100.114 50.1598 100.5 49.7693 101.099 49.7693C101.663 49.7693 102.092 50.1164 102.092 50.6697C102.092 51.1606 101.799 51.5132 101.202 52.1451L99.3225 54.0924V54.7Z" fill="#666666"/>
<path d="M119.753 54.7759C120.887 54.7759 121.72 54.0979 121.717 53.1757C121.72 52.4733 121.294 51.9688 120.556 51.8549V51.8115C121.137 51.6623 121.514 51.2067 121.511 50.5829C121.514 49.7665 120.844 49.0695 119.775 49.0695C118.755 49.0695 117.936 49.6852 117.909 50.5883H118.72C118.739 50.0784 119.219 49.7693 119.764 49.7693C120.331 49.7693 120.703 50.1137 120.7 50.6263C120.703 51.1633 120.271 51.5159 119.656 51.5159H119.187V52.1993H119.656C120.426 52.1993 120.871 52.5899 120.871 53.1486C120.871 53.6883 120.402 54.0545 119.748 54.0545C119.146 54.0545 118.677 53.7453 118.644 53.2517H117.793C117.828 54.1575 118.631 54.7759 119.753 54.7759Z" fill="#666666"/>
<path d="M137.395 53.6151H140.029V54.7H140.829V53.6151H141.564V52.9045H140.829V49.1455H139.796L137.395 52.937V53.6151ZM140.034 52.9045H138.274V52.8611L139.991 50.1435H140.034V52.9045Z" fill="#666666"/>
<path d="M18.7101 73.0744C19.8275 73.0744 20.6249 72.2851 20.6222 71.203C20.6249 70.129 19.8763 69.3479 18.8647 69.3479C18.4524 69.3479 18.07 69.5052 17.853 69.7167H17.8205L17.9968 68.1626H20.3537V67.4439H17.2998L16.9879 70.2429L17.7554 70.3568C17.9642 70.1696 18.3385 70.0422 18.6748 70.0422C19.3339 70.0476 19.8112 70.5412 19.8112 71.2192C19.8112 71.8864 19.3474 72.3692 18.7101 72.3692C18.1731 72.3692 17.7473 72.0275 17.7039 71.5501H16.8902C16.9228 72.4343 17.6903 73.0744 18.7101 73.0744Z" fill="#666666"/>
<path d="M39.5999 73.0744C40.7607 73.0852 41.5309 72.2499 41.5282 71.184C41.5309 70.1208 40.758 69.3587 39.7952 69.3587C39.2093 69.3587 38.7022 69.6408 38.4174 70.11H38.3767C38.3794 68.8488 38.8567 68.1003 39.6704 68.1003C40.2047 68.1003 40.541 68.4257 40.6549 68.8868H41.4821C41.3546 68.008 40.663 67.368 39.6704 67.368C38.3794 67.368 37.5739 68.4772 37.5739 70.4083C37.5712 72.4533 38.6127 73.0662 39.5999 73.0744ZM39.5972 72.3692C38.9517 72.3692 38.4798 71.8268 38.4798 71.203C38.4825 70.5819 38.9761 70.0395 39.6162 70.0395C40.2508 70.0395 40.7173 70.552 40.7146 71.1948C40.7173 71.8512 40.2318 72.3692 39.5972 72.3692Z" fill="#666666"/>
<path d="M59.0673 72.9984H59.9433L62.3599 68.187V67.4439H58.6876V68.1626H61.492V68.2033L59.0673 72.9984Z" fill="#666666"/>
<ellipse cx="81.8785" cy="70.1958" rx="8.91034" ry="8.39625" fill="#46BCFF"/>
<path d="M81.8769 73.0744C83.0323 73.0744 83.8486 72.418 83.854 71.5176C83.8486 70.8178 83.3577 70.2293 82.7366 70.1181V70.0856C83.2764 69.9554 83.6425 69.4482 83.6479 68.8488C83.6425 67.9999 82.8939 67.368 81.8769 67.368C80.849 67.368 80.1004 67.9999 80.1058 68.8488C80.1004 69.4455 80.4666 69.9554 81.0171 70.0856V70.1181C80.3852 70.2293 79.8943 70.8178 79.8997 71.5176C79.8943 72.418 80.7107 73.0744 81.8769 73.0744ZM81.8769 72.3882C81.1826 72.3882 80.7432 72.0193 80.7486 71.4633C80.7432 70.8856 81.2205 70.4734 81.8769 70.4734C82.5224 70.4734 82.9997 70.8856 83.0051 71.4633C82.9997 72.0193 82.5631 72.3882 81.8769 72.3882ZM81.8769 69.8035C81.3155 69.8035 80.9168 69.4482 80.9222 68.9193C80.9168 68.3986 81.3019 68.0542 81.8769 68.0542C82.441 68.0542 82.8261 68.3986 82.8316 68.9193C82.8261 69.4482 82.4302 69.8035 81.8769 69.8035Z" fill="white"/>
<path d="M100.925 67.368C99.7588 67.3571 98.9967 68.1952 98.9967 69.2475C98.9994 70.308 99.7669 71.0728 100.73 71.0728C101.318 71.0728 101.823 70.7853 102.108 70.3188H102.151C102.148 71.5962 101.668 72.3421 100.855 72.3421C100.323 72.3421 99.9812 72.0166 99.8727 71.542H99.0455C99.1675 72.4397 99.8619 73.0744 100.855 73.0744C102.145 73.0744 102.954 71.9651 102.954 70.0205C102.951 67.9918 101.915 67.3761 100.925 67.368ZM100.928 68.0731C101.571 68.0731 102.045 68.6183 102.045 69.2285C102.048 69.8469 101.546 70.3893 100.911 70.3893C100.274 70.3893 99.813 69.8794 99.8103 69.2367C99.8103 68.5912 100.29 68.0731 100.928 68.0731Z" fill="#666666"/>
<path d="M118.279 67.4439H117.462L116.076 68.3498V69.1526L117.405 68.2847H117.438V72.9984H118.279V67.4439ZM121.715 73.0906C122.998 73.0906 123.749 72.0437 123.749 70.2239C123.749 68.4176 122.987 67.368 121.715 67.368C120.44 67.368 119.681 68.4149 119.678 70.2239C119.678 72.041 120.429 73.0879 121.715 73.0906ZM121.715 72.3665C120.964 72.3665 120.511 71.6125 120.511 70.2239C120.513 68.8407 120.966 68.0786 121.715 68.0786C122.461 68.0786 122.916 68.8407 122.916 70.2239C122.916 71.6125 122.463 72.3665 121.715 72.3665Z" fill="#666666"/>
<path d="M138.668 67.4439H137.852L136.466 68.3498V69.1526L137.795 68.2847H137.828V72.9984H138.668V67.4439ZM142.278 67.4439H141.462L140.076 68.3498V69.1526L141.405 68.2847H141.438V72.9984H142.278V67.4439Z" fill="#666666"/>
<path d="M17.2054 85.7277H16.389L15.0031 86.6335V87.4363L16.332 86.5684H16.3646V91.2822H17.2054V85.7277ZM18.7079 91.2822H22.3639V90.5634H19.8633V90.5228L20.9671 89.3674C21.9842 88.3395 22.2744 87.8486 22.2744 87.2275C22.2744 86.3352 21.5475 85.6517 20.5006 85.6517C19.4619 85.6517 18.7025 86.3243 18.7025 87.3387H19.5026C19.4998 86.742 19.885 86.3515 20.4844 86.3515C21.0485 86.3515 21.477 86.6986 21.477 87.2519C21.477 87.7428 21.1841 88.0954 20.5874 88.7273L18.7079 90.6746V91.2822Z" fill="#666666"/>
<path d="M38.089 85.7279H37.2726L35.8867 86.6337V87.4365L37.2156 86.5686H37.2482V91.2823H38.089V85.7279ZM41.5253 91.3583C42.6589 91.3583 43.4916 90.6802 43.4889 89.7581C43.4916 89.0557 43.0658 88.5512 42.3281 88.4373V88.3939C42.9085 88.2447 43.2854 87.7891 43.2827 87.1653C43.2854 86.3489 42.6155 85.6519 41.547 85.6519C40.5272 85.6519 39.7081 86.2676 39.681 87.1707H40.4919C40.5109 86.6608 40.991 86.3516 41.5361 86.3516C42.1029 86.3516 42.4745 86.6961 42.4718 87.2087C42.4745 87.7457 42.0433 88.0983 41.4276 88.0983H40.9584V88.7817H41.4276C42.1979 88.7817 42.6427 89.1723 42.6427 89.731C42.6427 90.2707 42.1735 90.6369 41.5198 90.6369C40.9177 90.6369 40.4485 90.3277 40.416 89.8341H39.5644C39.5996 90.7399 40.4024 91.3583 41.5253 91.3583Z" fill="#666666"/>
<path d="M58.8955 85.7279H58.0791L56.6932 86.6337V87.4365L58.0222 86.5686H58.0547V91.2823H58.8955V85.7279ZM60.2814 90.1975H62.9149V91.2823H63.715V90.1975H64.45V89.4869H63.715V85.7279H62.6816L60.2814 89.5194V90.1975ZM62.9203 89.4869H61.1601V89.4435L62.8769 86.7259H62.9203V89.4869Z" fill="#666666"/>
<path d="M80.5054 85.7279H79.6891L78.3032 86.6337V87.4365L79.6321 86.5686H79.6647V91.2823H80.5054V85.7279ZM83.8414 91.3583C84.9588 91.3583 85.7562 90.5691 85.7535 89.4869C85.7562 88.4129 85.0076 87.6318 83.996 87.6318C83.5837 87.6318 83.2013 87.7891 82.9843 88.0006H82.9518L83.1281 86.4466H85.4849V85.7279H82.4311L82.1192 88.5268L82.8867 88.6407C83.0955 88.4536 83.4698 88.3261 83.8061 88.3261C84.4652 88.3315 84.9425 88.8251 84.9425 89.5032C84.9425 90.1704 84.4787 90.6531 83.8414 90.6531C83.3044 90.6531 82.8786 90.3114 82.8352 89.8341H82.0215C82.0541 90.7182 82.8216 91.3583 83.8414 91.3583Z" fill="#666666"/>
<path d="M99.5398 85.7279H98.7234L97.3375 86.6337V87.4365L98.6664 86.5686H98.699V91.2823H99.5398V85.7279ZM102.981 91.3583C104.142 91.3691 104.913 90.5338 104.91 89.4679C104.913 88.4048 104.14 87.6426 103.177 87.6426C102.591 87.6426 102.084 87.9247 101.799 88.3939H101.758C101.761 87.1327 102.238 86.3842 103.052 86.3842C103.586 86.3842 103.923 86.7097 104.037 87.1707H104.864C104.736 86.292 104.045 85.6519 103.052 85.6519C101.761 85.6519 100.956 86.7612 100.956 88.6922C100.953 90.7372 101.994 91.3502 102.981 91.3583ZM102.979 90.6531C102.333 90.6531 101.861 90.1107 101.861 89.4869C101.864 88.8658 102.358 88.3234 102.998 88.3234C103.632 88.3234 104.099 88.836 104.096 89.4788C104.099 90.1351 103.613 90.6531 102.979 90.6531Z" fill="#666666"/>
<path d="M118.373 85.7279H117.556L116.17 86.6337V87.4365L117.499 86.5686H117.532V91.2823H118.373V85.7279ZM120.062 91.2823H120.938L123.355 86.471V85.7279H119.683V86.4466H122.487V86.4873L120.062 91.2823Z" fill="#46BCFF"/>
<path d="M138.06 85.7279H137.244L135.858 86.6337V87.4365L137.187 86.5686H137.219V91.2823H138.06V85.7279ZM141.439 91.3583C142.595 91.3583 143.411 90.7019 143.417 89.8015C143.411 89.1018 142.92 88.5132 142.299 88.402V88.3695C142.839 88.2393 143.205 87.7321 143.21 87.1327C143.205 86.2838 142.456 85.6519 141.439 85.6519C140.411 85.6519 139.663 86.2838 139.668 87.1327C139.663 87.7294 140.029 88.2393 140.58 88.3695V88.402C139.948 88.5132 139.457 89.1018 139.462 89.8015C139.457 90.7019 140.273 91.3583 141.439 91.3583ZM141.439 90.6721C140.745 90.6721 140.306 90.3033 140.311 89.7473C140.306 89.1696 140.783 88.7573 141.439 88.7573C142.085 88.7573 142.562 89.1696 142.568 89.7473C142.562 90.3033 142.126 90.6721 141.439 90.6721ZM141.439 88.0874C140.878 88.0874 140.479 87.7321 140.485 87.2033C140.479 86.6825 140.864 86.3381 141.439 86.3381C142.004 86.3381 142.389 86.6825 142.394 87.2033C142.389 87.7321 141.993 88.0874 141.439 88.0874Z" fill="#666666"/>
<path d="M17.1196 104.024H16.3032L14.9173 104.93V105.732L16.2463 104.864H16.2788V109.578H17.1196V104.024ZM20.4691 103.948C19.3029 103.937 18.5408 104.775 18.5408 105.827C18.5435 106.888 19.311 107.653 20.2738 107.653C20.8624 107.653 21.3668 107.365 21.6516 106.899H21.695C21.6923 108.176 21.2122 108.922 20.3986 108.922C19.867 108.922 19.5253 108.596 19.4168 108.122H18.5896C18.7116 109.019 19.4059 109.654 20.3986 109.654C21.6896 109.654 22.4978 108.545 22.4978 106.6C22.4951 104.572 21.459 103.956 20.4691 103.948ZM20.4718 104.653C21.1146 104.653 21.5892 105.198 21.5892 105.808C21.5919 106.427 21.0902 106.969 20.4555 106.969C19.8182 106.969 19.3571 106.459 19.3544 105.816C19.3544 105.171 19.8345 104.653 20.4718 104.653Z" fill="#666666"/>
<path d="M35.4394 109.578H39.0954V108.859H36.5948V108.819L37.6986 107.663C38.7157 106.635 39.0059 106.145 39.0059 105.524C39.0059 104.631 38.279 103.948 37.2321 103.948C36.1934 103.948 35.434 104.62 35.434 105.635H36.234C36.2313 105.038 36.6165 104.647 37.2158 104.647C37.78 104.647 38.2085 104.995 38.2085 105.548C38.2085 106.039 37.9156 106.391 37.3189 107.023L35.4394 108.971V109.578ZM42.057 109.67C43.3399 109.67 44.0912 108.624 44.0912 106.804C44.0912 104.997 43.329 103.948 42.057 103.948C40.7823 103.948 40.0229 104.995 40.0202 106.804C40.0202 108.621 40.7715 109.668 42.057 109.67ZM42.057 108.946C41.3058 108.946 40.8529 108.192 40.8529 106.804C40.8556 105.42 41.3085 104.658 42.057 104.658C42.8029 104.658 43.2585 105.42 43.2585 106.804C43.2585 108.192 42.8056 108.946 42.057 108.946Z" fill="#666666"/>
<path d="M57.104 109.578H60.76V108.859H58.2594V108.819L59.3632 107.663C60.3803 106.635 60.6705 106.145 60.6705 105.524C60.6705 104.631 59.9436 103.948 58.8967 103.948C57.858 103.948 57.0986 104.62 57.0986 105.635H57.8987C57.8959 105.038 58.2811 104.647 58.8805 104.647C59.4446 104.647 59.8731 104.995 59.8731 105.548C59.8731 106.039 59.5802 106.391 58.9835 107.023L57.104 108.971V109.578ZM63.8952 104.024H63.0789L61.693 104.93V105.732L63.0219 104.864H63.0545V109.578H63.8952V104.024Z" fill="#46BCFF"/>
<path d="M77.729 109.578H81.385V108.859H78.8844V108.819L79.9882 107.663C81.0053 106.635 81.2955 106.145 81.2955 105.524C81.2955 104.631 80.5686 103.948 79.5218 103.948C78.483 103.948 77.7236 104.62 77.7236 105.635H78.5237C78.521 105.038 78.9061 104.647 79.5055 104.647C80.0696 104.647 80.4981 104.995 80.4981 105.548C80.4981 106.039 80.2052 106.391 79.6085 107.023L77.729 108.971V109.578ZM82.4129 109.578H86.0689V108.859H83.5683V108.819L84.6721 107.663C85.6892 106.635 85.9794 106.145 85.9794 105.524C85.9794 104.631 85.2525 103.948 84.2057 103.948C83.1669 103.948 82.4075 104.62 82.4075 105.635H83.2076C83.2049 105.038 83.59 104.647 84.1894 104.647C84.7535 104.647 85.182 104.995 85.182 105.548C85.182 106.039 84.8891 106.391 84.2924 107.023L82.4129 108.971V109.578Z" fill="#666666"/>
<path d="M96.8617 109.578H100.518V108.859H98.0171V108.819L99.1209 107.663C100.138 106.635 100.428 106.145 100.428 105.524C100.428 104.631 99.7013 103.948 98.6544 103.948C97.6157 103.948 96.8563 104.62 96.8563 105.635H97.6564C97.6536 105.038 98.0388 104.647 98.6382 104.647C99.2023 104.647 99.6308 104.995 99.6308 105.548C99.6308 106.039 99.3379 106.391 98.7412 107.023L96.8617 108.971V109.578ZM103.479 109.654C104.613 109.654 105.446 108.976 105.443 108.054C105.446 107.352 105.02 106.847 104.282 106.733V106.69C104.863 106.541 105.24 106.085 105.237 105.461C105.24 104.645 104.57 103.948 103.501 103.948C102.481 103.948 101.662 104.563 101.635 105.467H102.446C102.465 104.957 102.945 104.647 103.49 104.647C104.057 104.647 104.429 104.992 104.426 105.505C104.429 106.042 103.997 106.394 103.382 106.394H102.913V107.078H103.382C104.152 107.078 104.597 107.468 104.597 108.027C104.597 108.567 104.128 108.933 103.474 108.933C102.872 108.933 102.403 108.624 102.37 108.13H101.518C101.554 109.036 102.357 109.654 103.479 109.654Z" fill="#666666"/>
<path d="M115.66 109.578H119.316V108.859H116.815V108.819L117.919 107.663C118.936 106.635 119.226 106.145 119.226 105.524C119.226 104.631 118.499 103.948 117.452 103.948C116.414 103.948 115.654 104.62 115.654 105.635H116.454C116.452 105.038 116.837 104.647 117.436 104.647C118 104.647 118.429 104.995 118.429 105.548C118.429 106.039 118.136 106.391 117.539 107.023L115.66 108.971V109.578ZM120.108 108.493H122.741V109.578H123.541V108.493H124.276V107.783H123.541V104.024H122.508L120.108 107.815V108.493ZM122.747 107.783H120.986V107.739L122.703 105.022H122.747V107.783Z" fill="#666666"/>
<path d="M135.301 109.578H138.957V108.859H136.456V108.819L137.56 107.663C138.577 106.635 138.868 106.145 138.868 105.524C138.868 104.631 138.141 103.948 137.094 103.948C136.055 103.948 135.296 104.62 135.296 105.635H136.096C136.093 105.038 136.478 104.647 137.078 104.647C137.642 104.647 138.07 104.995 138.07 105.548C138.07 106.039 137.777 106.391 137.181 107.023L135.301 108.971V109.578ZM141.818 109.654C142.936 109.654 143.733 108.865 143.73 107.783C143.733 106.709 142.985 105.928 141.973 105.928C141.561 105.928 141.178 106.085 140.961 106.296H140.929L141.105 104.742H143.462V104.024H140.408L140.096 106.823L140.864 106.937C141.073 106.749 141.447 106.622 141.783 106.622C142.442 106.627 142.92 107.121 142.92 107.799C142.92 108.466 142.456 108.949 141.818 108.949C141.281 108.949 140.856 108.607 140.812 108.13H139.999C140.031 109.014 140.799 109.654 141.818 109.654Z" fill="#666666"/>
<path d="M14.3148 127.867H17.9707V127.148H15.4701V127.108L16.574 125.952C17.591 124.924 17.8812 124.434 17.8812 123.812C17.8812 122.92 17.1544 122.237 16.1075 122.237C15.0687 122.237 14.3093 122.909 14.3093 123.924H15.1094C15.1067 123.327 15.4918 122.936 16.0912 122.936C16.6553 122.936 17.0839 123.284 17.0839 123.837C17.0839 124.328 16.791 124.68 16.1943 125.312L14.3148 127.26V127.867ZM20.9378 127.943C22.0986 127.954 22.8689 127.119 22.8662 126.053C22.8689 124.99 22.0959 124.227 21.1331 124.227C20.5473 124.227 20.0401 124.509 19.7553 124.979H19.7147C19.7174 123.718 20.1947 122.969 21.0084 122.969C21.5427 122.969 21.879 123.294 21.9929 123.755H22.8201C22.6926 122.877 22.001 122.237 21.0084 122.237C19.7174 122.237 18.9119 123.346 18.9119 125.277C18.9092 127.322 19.9506 127.935 20.9378 127.943ZM20.9351 127.238C20.2896 127.238 19.8177 126.695 19.8177 126.072C19.8204 125.451 20.314 124.908 20.9541 124.908C21.5888 124.908 22.0553 125.421 22.0525 126.064C22.0553 126.72 21.5698 127.238 20.9351 127.238Z" fill="#666666"/>
<path d="M35.6942 127.867H39.3502V127.148H36.8496V127.107L37.9534 125.952C38.9705 124.924 39.2607 124.433 39.2607 123.812C39.2607 122.92 38.5338 122.236 37.4869 122.236C36.4482 122.236 35.6888 122.909 35.6888 123.923H36.4889C36.4862 123.326 36.8713 122.936 37.4707 122.936C38.0348 122.936 38.4633 123.283 38.4633 123.836C38.4633 124.327 38.1704 124.68 37.5737 125.312L35.6942 127.259V127.867ZM40.5652 127.867H41.4413L43.8578 123.055V122.312H40.1855V123.031H42.9899V123.071L40.5652 127.867Z" fill="#666666"/>
<path d="M56.3366 127.867H59.9926V127.148H57.492V127.107L58.5959 125.952C59.6129 124.924 59.9031 124.433 59.9031 123.812C59.9031 122.92 59.1763 122.236 58.1294 122.236C57.0906 122.236 56.3312 122.909 56.3312 123.923H57.1313C57.1286 123.326 57.5137 122.936 58.1131 122.936C58.6772 122.936 59.1057 123.283 59.1057 123.836C59.1057 124.327 58.8128 124.68 58.2162 125.312L56.3366 127.259V127.867ZM62.8973 127.943C64.0527 127.943 64.8691 127.286 64.8745 126.386C64.8691 125.686 64.3782 125.097 63.7571 124.986V124.954C64.2968 124.824 64.663 124.316 64.6684 123.717C64.663 122.868 63.9144 122.236 62.8973 122.236C61.8694 122.236 61.1209 122.868 61.1263 123.717C61.1209 124.314 61.487 124.824 62.0376 124.954V124.986C61.4057 125.097 60.9148 125.686 60.9202 126.386C60.9148 127.286 61.7311 127.943 62.8973 127.943ZM62.8973 127.256C62.203 127.256 61.7637 126.887 61.7691 126.331C61.7637 125.754 62.241 125.342 62.8973 125.342C63.5428 125.342 64.0202 125.754 64.0256 126.331C64.0202 126.887 63.5835 127.256 62.8973 127.256ZM62.8973 124.672C62.3359 124.672 61.9372 124.316 61.9427 123.787C61.9372 123.267 62.3224 122.922 62.8973 122.922C63.4615 122.922 63.8466 123.267 63.852 123.787C63.8466 124.316 63.4506 124.672 62.8973 124.672Z" fill="#666666"/>
<path d="M77.6418 127.867H81.2978V127.148H78.7972V127.107L79.901 125.952C80.9181 124.924 81.2083 124.433 81.2083 123.812C81.2083 122.92 80.4814 122.236 79.4345 122.236C78.3958 122.236 77.6364 122.909 77.6364 123.923H78.4364C78.4337 123.326 78.8189 122.936 79.4182 122.936C79.9824 122.936 80.4109 123.283 80.4109 123.836C80.4109 124.327 80.118 124.68 79.5213 125.312L77.6418 127.259V127.867ZM84.1727 122.236C83.0064 122.225 82.2443 123.063 82.2443 124.116C82.247 125.176 83.0146 125.941 83.9774 125.941C84.5659 125.941 85.0704 125.653 85.3552 125.187H85.3986C85.3958 126.464 84.9158 127.21 84.1021 127.21C83.5706 127.21 83.2288 126.885 83.1203 126.41H82.2931C82.4152 127.308 83.1095 127.943 84.1021 127.943C85.3931 127.943 86.2014 126.833 86.2014 124.889C86.1986 122.86 85.1626 122.244 84.1727 122.236ZM84.1754 122.941C84.8182 122.941 85.2928 123.486 85.2928 124.097C85.2955 124.715 84.7937 125.257 84.1591 125.257C83.5217 125.257 83.0607 124.748 83.058 124.105C83.058 123.459 83.538 122.941 84.1754 122.941Z" fill="#46BCFF"/>
<path d="M98.6722 127.943C99.8058 127.943 100.638 127.264 100.636 126.342C100.638 125.64 100.213 125.135 99.475 125.022V124.978C100.055 124.829 100.432 124.373 100.43 123.75C100.432 122.933 99.7624 122.236 98.6939 122.236C97.6741 122.236 96.855 122.852 96.8279 123.755H97.6388C97.6578 123.245 98.1379 122.936 98.683 122.936C99.2498 122.936 99.6214 123.28 99.6187 123.793C99.6214 124.33 99.1902 124.683 98.5745 124.683H98.1053V125.366H98.5745C99.3448 125.366 99.7896 125.757 99.7896 126.315C99.7896 126.855 99.3204 127.221 98.6667 127.221C98.0646 127.221 97.5954 126.912 97.5629 126.418H96.7113C96.7465 127.324 97.5493 127.943 98.6722 127.943ZM103.595 127.959C104.878 127.959 105.629 126.912 105.629 125.092C105.629 123.286 104.867 122.236 103.595 122.236C102.32 122.236 101.561 123.283 101.558 125.092C101.558 126.909 102.309 127.956 103.595 127.959ZM103.595 127.235C102.843 127.235 102.391 126.481 102.391 125.092C102.393 123.709 102.846 122.947 103.595 122.947C104.341 122.947 104.796 123.709 104.796 125.092C104.796 126.481 104.343 127.235 103.595 127.235Z" fill="#666666"/>
<path d="M118.744 127.943C119.877 127.943 120.71 127.264 120.707 126.342C120.71 125.64 120.284 125.135 119.547 125.022V124.978C120.127 124.829 120.504 124.373 120.501 123.75C120.504 122.933 119.834 122.236 118.765 122.236C117.746 122.236 116.927 122.852 116.899 123.755H117.71C117.729 123.245 118.209 122.936 118.755 122.936C119.321 122.936 119.693 123.28 119.69 123.793C119.693 124.33 119.262 124.683 118.646 124.683H118.177V125.366H118.646C119.416 125.366 119.861 125.757 119.861 126.315C119.861 126.855 119.392 127.221 118.738 127.221C118.136 127.221 117.667 126.912 117.634 126.418H116.783C116.818 127.324 117.621 127.943 118.744 127.943ZM123.84 122.312H123.024L121.638 123.218V124.021L122.967 123.153H122.999V127.867H123.84V122.312Z" fill="#666666"/>
<path d="M15.4145 13.1514V17.0243C15.4118 17.5586 15.1732 17.8407 14.7392 17.8407C14.3297 17.8407 14.0639 17.5858 14.0557 17.1437H12.8868C12.8814 18.2529 13.6733 18.7818 14.6795 18.7818C15.8051 18.7818 16.5726 18.1011 16.5753 17.0243V13.1514H15.4145ZM20.1961 16.9321C20.1988 17.4908 19.8164 17.7837 19.4014 17.7837C18.9647 17.7837 18.6827 17.4773 18.68 16.9864V14.54H17.5246V17.1925C17.5273 18.1662 18.0969 18.7601 18.9349 18.7601C19.5614 18.7601 20.0116 18.4374 20.1988 17.9492H20.2422V18.7059H21.3514V14.54H20.1961V16.9321ZM23.431 16.2975C23.4337 15.7605 23.7537 15.4459 24.2202 15.4459C24.684 15.4459 24.9634 15.7496 24.9606 16.2595V18.7059H26.116V16.0534C26.116 15.0824 25.5465 14.4858 24.6786 14.4858C24.0602 14.4858 23.6127 14.7895 23.4256 15.275H23.3767V14.54H22.2756V18.7059H23.431V16.2975ZM28.9251 18.7872C29.9558 18.7872 30.6501 18.2855 30.8128 17.5125L29.7442 17.442C29.6276 17.7593 29.3293 17.9248 28.9441 17.9248C28.3664 17.9248 28.0003 17.5424 28.0003 16.9213V16.9186H30.8372V16.6012C30.8372 15.1855 29.9802 14.4858 28.879 14.4858C27.6531 14.4858 26.8585 15.3564 26.8585 16.6419C26.8585 17.9627 27.6423 18.7872 28.9251 18.7872ZM28.0003 16.2026C28.0247 15.7279 28.3854 15.3482 28.898 15.3482C29.3998 15.3482 29.7469 15.7062 29.7496 16.2026H28.0003ZM33.348 18.7059H37.3077V17.7458H34.9753V17.7078L35.7862 16.9131C36.928 15.8717 37.2345 15.3509 37.2345 14.719C37.2345 13.7562 36.448 13.0754 35.2573 13.0754C34.0911 13.0754 33.291 13.7725 33.2937 14.8627H34.4084C34.4057 14.3312 34.742 14.0057 35.2492 14.0057C35.7374 14.0057 36.1008 14.3095 36.1008 14.7977C36.1008 15.2397 35.8296 15.5435 35.3252 16.029L33.348 17.8597V18.7059ZM40.3365 18.8279C41.7333 18.8279 42.5768 17.7648 42.5795 15.934C42.5822 14.1169 41.7279 13.0754 40.3365 13.0754C38.9425 13.0754 38.0963 14.1142 38.0936 15.934C38.0882 17.7593 38.9371 18.8252 40.3365 18.8279ZM40.3365 17.8543C39.6992 17.8543 39.2869 17.2142 39.2896 15.934C39.2924 14.6729 39.7019 14.0383 40.3365 14.0383C40.9685 14.0383 41.3807 14.6729 41.3807 15.934C41.3834 17.2142 40.9712 17.8543 40.3365 17.8543ZM43.4169 18.7059H47.3766V17.7458H45.0442V17.7078L45.8551 16.9131C46.9969 15.8717 47.3034 15.3509 47.3034 14.719C47.3034 13.7562 46.5169 13.0754 45.3262 13.0754C44.16 13.0754 43.3599 13.7725 43.3626 14.8627H44.4773C44.4746 14.3312 44.8109 14.0057 45.3181 14.0057C45.8063 14.0057 46.1697 14.3095 46.1697 14.7977C46.1697 15.2397 45.8985 15.5435 45.394 16.029L43.4169 17.8597V18.7059ZM50.6441 13.1514H49.5402L48.1652 14.022V15.0634L49.4372 14.2661H49.4697V18.7059H50.6441V13.1514Z" fill="#46BCFF"/>
</g>
<defs>
<filter id="filter0_d" x="0" y="0" width="158" height="155.059" filterUnits="userSpaceOnUse" color-interpolation-filters="sRGB">
<feFlood flood-opacity="0" result="BackgroundImageFix"/>
<feColorMatrix in="SourceAlpha" type="matrix" values="0 0 0 0 0 0 0 0 0 0 0 0 0 0 0 0 0 0 127 0"/>
<feOffset dy="4"/>
<feGaussianBlur stdDeviation="2"/>
<feColorMatrix type="matrix" values="0 0 0 0 0 0 0 0 0 0 0 0 0 0 0 0 0 0 0.25 0"/>
<feBlend mode="normal" in2="BackgroundImageFix" result="effect1_dropShadow"/>
<feBlend mode="normal" in="SourceGraphic" in2="effect1_dropShadow" result="shape"/>
</filter>
</defs>
</svg>
