<svg width="86" height="86" viewBox="0 0 86 86" fill="none" xmlns="http://www.w3.org/2000/svg">
<path d="M42.6112 1.34254C19.612 1.53801 1.14631 20.3623 1.34177 43.3615C1.53724 66.3606 20.3202 84.8683 43.3194 84.6729C66.3602 84.4771 84.8676 65.6524 84.6721 42.6533C84.4766 19.6541 65.652 1.14672 42.6112 1.34254ZM43.2902 76.3395C24.8742 76.496 9.83132 61.7066 9.67481 43.2906C9.51829 24.8746 24.3077 9.83173 42.7237 9.67522C61.1397 9.51871 76.1826 24.3081 76.3391 42.7241C76.4956 61.1401 61.7062 76.183 43.2902 76.3395ZM57.5543 38.7169C61.0125 38.6875 63.7804 35.8722 63.751 32.414C63.7216 28.9558 60.9063 26.188 57.4481 26.2174C53.9899 26.2467 51.2221 29.062 51.2514 32.5202C51.2808 35.9784 54.0961 38.7463 57.5543 38.7169ZM28.3887 38.9648C31.8469 38.9354 34.6148 36.1201 34.5854 32.6619C34.556 29.2037 31.7407 26.4358 28.2825 26.4652C24.8243 26.4946 22.0564 29.3099 22.0858 32.7681C22.1152 36.2263 24.9305 38.9942 28.3887 38.9648ZM43.2017 65.9232C52.9097 65.8407 61.1077 59.6875 64.3687 51.1594L21.7869 51.5213C25.1923 59.9927 33.4937 66.0057 43.2017 65.9232Z" fill="#A6A3FA"/>
</svg>
