<svg width="1118" height="1117" viewBox="0 0 1118 1117" fill="none" xmlns="http://www.w3.org/2000/svg">
<g filter="url(#filter0_d)">
<rect x="15.2618" y="16.5732" width="1093.74" height="1083.43" rx="192.469" fill="#007ABE"/>
<rect x="9" width="1095.83" height="1087.57" rx="192.469" fill="#46BCFF"/>
<g filter="url(#filter1_d)">
<path d="M990.412 898.71C990.412 918.415 974.551 934.389 954.986 934.389H175.633C156.067 934.389 140.207 918.415 140.207 898.71V363.524H990.412V898.71ZM990.412 363.524H140.207V220.808C140.207 201.102 156.067 185.128 175.633 185.128H281.908V256.485C281.908 276.191 297.769 292.165 317.334 292.165C336.9 292.165 352.76 276.191 352.76 256.485V185.128H777.863V256.485C777.863 276.191 793.723 292.165 813.289 292.165C832.854 292.165 848.714 276.191 848.714 256.485V185.128H954.99C974.555 185.128 990.416 201.102 990.416 220.808L990.412 363.524Z" fill="white"/>
</g>
<g filter="url(#filter2_d)">
<path d="M988.308 896.645C988.308 916.351 972.448 932.325 952.883 932.325H173.529C153.963 932.325 138.103 916.351 138.103 896.645V361.46H988.308V896.645ZM988.308 361.46H138.103V218.743C138.103 199.038 153.963 183.063 173.529 183.063H279.805V254.421C279.805 274.126 295.665 290.101 315.231 290.101C334.796 290.101 350.656 274.126 350.656 254.421V183.063H775.759V254.421C775.759 274.126 791.62 290.101 811.185 290.101C830.751 290.101 846.611 274.126 846.611 254.421V183.063H952.887C972.452 183.063 988.313 199.038 988.313 218.743L988.308 361.46Z" fill="white"/>
</g>
<g filter="url(#filter3_d)">
<path d="M986.205 894.582C986.205 914.287 970.345 930.261 950.779 930.261H171.426C151.86 930.261 136 914.287 136 894.582V359.396H986.205V894.582ZM986.205 359.396H136V216.68C136 196.974 151.86 181 171.426 181H277.702V252.357C277.702 272.063 293.562 288.037 313.128 288.037C332.693 288.037 348.553 272.063 348.553 252.357V181H773.656V252.357C773.656 272.063 789.517 288.037 809.082 288.037C828.648 288.037 844.508 272.063 844.508 252.357V181H950.784C970.349 181 986.21 196.974 986.21 216.68L986.205 359.396Z" fill="white"/>
</g>
<g filter="url(#filter4_di)">
<path d="M809.215 387.195C795.035 373.602 772.554 373.602 758.376 387.195L493.851 649.725C492.555 651.011 490.465 651.011 489.169 649.725L371.012 532.458C356.476 518.524 333.311 518.924 319.272 533.349C305.576 547.423 305.576 569.734 319.272 583.808L465.64 729.074C479.93 743.25 503.092 743.25 517.38 729.074L810.114 438.545C824.153 424.118 823.75 401.128 809.215 387.195Z" fill="black"/>
</g>
</g>
<defs>
<filter id="filter0_d" x="0.650854" y="0" width="1116.7" height="1116.7" filterUnits="userSpaceOnUse" color-interpolation-filters="sRGB">
<feFlood flood-opacity="0" result="BackgroundImageFix"/>
<feColorMatrix in="SourceAlpha" type="matrix" values="0 0 0 0 0 0 0 0 0 0 0 0 0 0 0 0 0 0 127 0"/>
<feOffset dy="8.34915"/>
<feGaussianBlur stdDeviation="4.17457"/>
<feColorMatrix type="matrix" values="0 0 0 0 0 0 0 0 0 0 0 0 0 0 0 0 0 0 0.25 0"/>
<feBlend mode="normal" in2="BackgroundImageFix" result="effect1_dropShadow"/>
<feBlend mode="normal" in="SourceGraphic" in2="effect1_dropShadow" result="shape"/>
</filter>
<filter id="filter1_d" x="131.858" y="185.128" width="866.908" height="774.309" filterUnits="userSpaceOnUse" color-interpolation-filters="sRGB">
<feFlood flood-opacity="0" result="BackgroundImageFix"/>
<feColorMatrix in="SourceAlpha" type="matrix" values="0 0 0 0 0 0 0 0 0 0 0 0 0 0 0 0 0 0 127 0"/>
<feOffset dy="16.6983"/>
<feGaussianBlur stdDeviation="4.17457"/>
<feColorMatrix type="matrix" values="0 0 0 0 0 0 0 0 0 0 0 0 0 0 0 0 0 0 0.25 0"/>
<feBlend mode="normal" in2="BackgroundImageFix" result="effect1_dropShadow"/>
<feBlend mode="normal" in="SourceGraphic" in2="effect1_dropShadow" result="shape"/>
</filter>
<filter id="filter2_d" x="129.754" y="183.063" width="866.908" height="774.309" filterUnits="userSpaceOnUse" color-interpolation-filters="sRGB">
<feFlood flood-opacity="0" result="BackgroundImageFix"/>
<feColorMatrix in="SourceAlpha" type="matrix" values="0 0 0 0 0 0 0 0 0 0 0 0 0 0 0 0 0 0 127 0"/>
<feOffset dy="16.6983"/>
<feGaussianBlur stdDeviation="4.17457"/>
<feColorMatrix type="matrix" values="0 0 0 0 0 0 0 0 0 0 0 0 0 0 0 0 0 0 0.25 0"/>
<feBlend mode="normal" in2="BackgroundImageFix" result="effect1_dropShadow"/>
<feBlend mode="normal" in="SourceGraphic" in2="effect1_dropShadow" result="shape"/>
</filter>
<filter id="filter3_d" x="127.651" y="181" width="866.908" height="765.96" filterUnits="userSpaceOnUse" color-interpolation-filters="sRGB">
<feFlood flood-opacity="0" result="BackgroundImageFix"/>
<feColorMatrix in="SourceAlpha" type="matrix" values="0 0 0 0 0 0 0 0 0 0 0 0 0 0 0 0 0 0 127 0"/>
<feOffset dy="8.34915"/>
<feGaussianBlur stdDeviation="4.17457"/>
<feColorMatrix type="matrix" values="0 0 0 0 0 0 0 0 0 0 0 0 0 0 0 0 0 0 0.25 0"/>
<feBlend mode="normal" in2="BackgroundImageFix" result="effect1_dropShadow"/>
<feBlend mode="normal" in="SourceGraphic" in2="effect1_dropShadow" result="shape"/>
</filter>
<filter id="filter4_di" x="300.651" y="374.913" width="528.083" height="409.103" filterUnits="userSpaceOnUse" color-interpolation-filters="sRGB">
<feFlood flood-opacity="0" result="BackgroundImageFix"/>
<feColorMatrix in="SourceAlpha" type="matrix" values="0 0 0 0 0 0 0 0 0 0 0 0 0 0 0 0 0 0 127 0"/>
<feOffset dy="6.26186"/>
<feGaussianBlur stdDeviation="4.17457"/>
<feColorMatrix type="matrix" values="0 0 0 0 0 0 0 0 0 0 0 0 0 0 0 0 0 0 0.25 0"/>
<feBlend mode="normal" in2="BackgroundImageFix" result="effect1_dropShadow"/>
<feBlend mode="normal" in="SourceGraphic" in2="effect1_dropShadow" result="shape"/>
<feColorMatrix in="SourceAlpha" type="matrix" values="0 0 0 0 0 0 0 0 0 0 0 0 0 0 0 0 0 0 127 0" result="hardAlpha"/>
<feOffset dy="44.3102"/>
<feGaussianBlur stdDeviation="22.1551"/>
<feComposite in2="hardAlpha" operator="arithmetic" k2="-1" k3="1"/>
<feColorMatrix type="matrix" values="0 0 0 0 1 0 0 0 0 1 0 0 0 0 1 0 0 0 0.4 0"/>
<feBlend mode="normal" in2="shape" result="effect2_innerShadow"/>
</filter>
</defs>
</svg>
