<svg width="114" height="199" viewBox="0 0 114 199" fill="none" xmlns="http://www.w3.org/2000/svg">
<circle cx="47.4564" cy="84.2573" r="1.01736" fill="#46BCFF"/>
<rect x="1.93145" y="2.48773" width="109.151" height="193.705" rx="5.76503" transform="rotate(-0.292015 1.93145 2.48773)" fill="white" stroke="#004F7B" stroke-width="3.84336"/>
<path d="M30 3.28583L86.1123 2.99984L86.1279 6.07449C86.1431 9.04613 83.7464 11.4674 80.7747 11.4825L35.4237 11.7137C32.4521 11.7288 30.0308 9.33211 30.0157 6.36047L30 3.28583Z" fill="#004F7B"/>
<path d="M10.087 32.4223V36.1993H10.6292V33.4643H10.6643L11.7782 36.1938H12.2282L13.3421 33.4661H13.3772V36.1993H13.9194V32.4223H13.2278L12.0253 35.3583H11.9811L10.7786 32.4223H10.087ZM15.8969 36.2565C16.6955 36.2565 17.2174 35.6719 17.2174 34.7958C17.2174 33.9143 16.6955 33.3296 15.8969 33.3296C15.0983 33.3296 14.5764 33.9143 14.5764 34.7958C14.5764 35.6719 15.0983 36.2565 15.8969 36.2565ZM15.8987 35.7936C15.3768 35.7936 15.1334 35.338 15.1334 34.794C15.1334 34.2518 15.3768 33.7907 15.8987 33.7907C16.417 33.7907 16.6604 34.2518 16.6604 34.794C16.6604 35.338 16.417 35.7936 15.8987 35.7936Z" fill="#004F7B"/>
<path d="M25.0348 32.9127H26.2114V36.1992H26.7795V32.9127H27.9579V32.4221H25.0348V32.9127ZM29.9687 35.0244C29.9705 35.5057 29.6127 35.7344 29.3029 35.7344C28.9617 35.7344 28.7256 35.4873 28.7256 35.1018V33.3664H28.1742V35.1682C28.1742 35.8709 28.5596 36.2361 29.1037 36.2361C29.5297 36.2361 29.8193 36.0111 29.9502 35.7086H29.9797V36.1992H30.5219V33.3664H29.9687V35.0244Z" fill="#004F7B"/>
<path d="M39.3623 36.1992H39.9377L40.7325 33.3701H40.7621L41.5569 36.1992H42.1305L43.1799 32.4221H42.5787L41.8446 35.349H41.8096L41.0442 32.4221H40.4504L39.685 35.3471H39.65L38.9141 32.4221H38.3147L39.3623 36.1992ZM44.5972 36.2564C45.215 36.2564 45.6521 35.9521 45.7775 35.491L45.2556 35.3969C45.156 35.6644 44.9163 35.8008 44.6027 35.8008C44.1306 35.8008 43.8134 35.4947 43.7986 34.9488H45.8126V34.7533C45.8126 33.7297 45.2003 33.3295 44.5585 33.3295C43.7691 33.3295 43.249 33.9307 43.249 34.8012C43.249 35.6809 43.7618 36.2564 44.5972 36.2564ZM43.8005 34.5357C43.8226 34.1336 44.114 33.785 44.5622 33.785C44.99 33.785 45.2704 34.1023 45.2722 34.5357H43.8005Z" fill="#004F7B"/>
<path d="M53.6048 32.9127H54.7814V36.1992H55.3495V32.9127H56.528V32.4221H53.6048V32.9127ZM57.6811 34.5172C57.6811 34.0654 57.9669 33.8072 58.3598 33.8072C58.7397 33.8072 58.9665 34.0488 58.9665 34.4637V36.1992H59.518V34.3973C59.518 33.691 59.1307 33.3295 58.5479 33.3295C58.1071 33.3295 57.8415 33.5213 57.7087 33.8275H57.6737V32.4221H57.1296V36.1992H57.6811V34.5172Z" fill="#004F7B"/>
<path d="M67.4194 36.1992H67.9893V34.5523H69.5938V34.0635H67.9893V32.9127H69.7616V32.4221H67.4194V36.1992ZM70.3827 36.1992H70.9341V34.4693C70.9341 34.0986 71.22 33.8311 71.611 33.8311C71.7253 33.8311 71.8544 33.8514 71.8987 33.8643V33.3369C71.8433 33.3295 71.7345 33.324 71.6644 33.324C71.3325 33.324 71.0485 33.5121 70.9452 33.8164H70.9157V33.3664H70.3827V36.1992Z" fill="#004F7B"/>
<path d="M81.5975 33.4143H82.1471C82.1305 32.8094 81.5956 32.3705 80.8284 32.3705C80.0704 32.3705 79.4895 32.8039 79.4895 33.4549C79.4895 33.9805 79.8657 34.2885 80.4725 34.4527L80.9188 34.5744C81.3227 34.6814 81.6344 34.8141 81.6344 35.1498C81.6344 35.5187 81.2821 35.7621 80.7971 35.7621C80.3581 35.7621 79.993 35.5666 79.9598 35.1553H79.3881C79.4249 35.8396 79.9543 36.2619 80.8008 36.2619C81.6879 36.2619 82.1987 35.7953 82.1987 35.1553C82.1987 34.4748 81.592 34.2111 81.1124 34.093L80.7436 33.9971C80.4485 33.9215 80.0557 33.7832 80.0575 33.4217C80.0575 33.1008 80.3508 32.8629 80.8155 32.8629C81.2489 32.8629 81.5569 33.0658 81.5975 33.4143ZM83.6598 36.2619C84.1283 36.2619 84.392 36.024 84.4971 35.8119H84.5193V36.1992H85.0578V34.318C85.0578 33.4936 84.4086 33.3295 83.9586 33.3295C83.4459 33.3295 82.9738 33.5361 82.7893 34.0525L83.3076 34.1705C83.3887 33.9695 83.5953 33.7758 83.966 33.7758C84.3219 33.7758 84.5045 33.9621 84.5045 34.283V34.2959C84.5045 34.4969 84.298 34.4932 83.7889 34.5523C83.2523 34.615 82.7027 34.7551 82.7027 35.3988C82.7027 35.9557 83.1213 36.2619 83.6598 36.2619ZM83.7797 35.8193C83.468 35.8193 83.243 35.6791 83.243 35.4062C83.243 35.1111 83.5049 35.0059 83.824 34.9635C84.0029 34.9396 84.4271 34.8916 84.5064 34.8123V35.1775C84.5064 35.5131 84.2389 35.8193 83.7797 35.8193Z" fill="#004F7B"/>
<path d="M94.9477 33.4143H95.4973C95.4807 32.8094 94.9459 32.3705 94.1786 32.3705C93.4206 32.3705 92.8397 32.8039 92.8397 33.4549C92.8397 33.9805 93.2159 34.2885 93.8227 34.4527L94.269 34.5744C94.6729 34.6814 94.9846 34.8141 94.9846 35.1498C94.9846 35.5187 94.6323 35.7621 94.1473 35.7621C93.7084 35.7621 93.3432 35.5666 93.31 35.1553H92.7383C92.7752 35.8396 93.3045 36.2619 94.151 36.2619C95.0381 36.2619 95.5489 35.7953 95.5489 35.1553C95.5489 34.4748 94.9422 34.2111 94.4627 34.093L94.0938 33.9971C93.7987 33.9215 93.4059 33.7832 93.4077 33.4217C93.4077 33.1008 93.701 32.8629 94.1657 32.8629C94.5991 32.8629 94.9071 33.0658 94.9477 33.4143ZM97.9801 35.0244C97.982 35.5057 97.6242 35.7344 97.3144 35.7344C96.9732 35.7344 96.7371 35.4873 96.7371 35.1018V33.3664H96.1857V35.1682C96.1857 35.8709 96.5711 36.2361 97.1152 36.2361C97.5412 36.2361 97.8307 36.0111 97.9617 35.7086H97.9912V36.1992H98.5334V33.3664H97.9801V35.0244Z" fill="#004F7B"/>
<path d="M57.0892 45.6195H56.5341L55.5917 46.2354V46.7813L56.4954 46.1912H56.5175V49.3965H57.0892V45.6195Z" fill="#666666"/>
<path d="M68.3831 49.3965H70.8692V48.9078H69.1688V48.8801L69.9194 48.0945C70.611 47.3955 70.8083 47.0617 70.8083 46.6393C70.8083 46.0326 70.3141 45.5678 69.6022 45.5678C68.8958 45.5678 68.3794 46.0252 68.3794 46.715H68.9235C68.9217 46.3092 69.1835 46.0436 69.5911 46.0436C69.9747 46.0436 70.2661 46.2797 70.2661 46.6559C70.2661 46.9897 70.0669 47.2295 69.6612 47.6592L68.3831 48.9834V49.3965Z" fill="#666666"/>
<path d="M82.2762 49.4482C83.0471 49.4482 83.6133 48.9871 83.6114 48.36C83.6133 47.8824 83.3237 47.5393 82.8221 47.4619V47.4324C83.2167 47.3309 83.4731 47.0211 83.4713 46.5969C83.4731 46.0418 83.0176 45.5678 82.2909 45.5678C81.5975 45.5678 81.0405 45.9865 81.0221 46.6006H81.5735C81.5864 46.2539 81.9128 46.0436 82.2835 46.0436C82.669 46.0436 82.9217 46.2779 82.9198 46.6264C82.9217 46.9916 82.6284 47.2313 82.2098 47.2313H81.8907V47.6961H82.2098C82.7335 47.6961 83.036 47.9617 83.036 48.3416C83.036 48.7086 82.7169 48.9576 82.2725 48.9576C81.8631 48.9576 81.544 48.7473 81.5219 48.4117H80.9428C80.9667 49.0277 81.5126 49.4482 82.2762 49.4482Z" fill="#666666"/>
<path d="M94.2727 48.6588H96.0635V49.3965H96.6075V48.6588H97.1073V48.1756H96.6075V45.6195H95.9049L94.2727 48.1977V48.6588ZM96.0672 48.1756H94.8702V48.1461L96.0376 46.2981H96.0672V48.1756Z" fill="#666666"/>
<path d="M13.5667 62.6529C14.3265 62.6529 14.8687 62.1162 14.8669 61.3804C14.8687 60.6501 14.3597 60.1189 13.6718 60.1189C13.3915 60.1189 13.1314 60.2259 12.9839 60.3697H12.9618L13.0817 59.313H14.6843V58.8242H12.6077L12.3956 60.7275L12.9175 60.805C13.0595 60.6777 13.314 60.591 13.5427 60.591C13.9909 60.5947 14.3155 60.9304 14.3155 61.3914C14.3155 61.8451 14.0001 62.1734 13.5667 62.1734C13.2015 62.1734 12.912 61.941 12.8825 61.6164H12.3292C12.3513 62.2177 12.8732 62.6529 13.5667 62.6529Z" fill="#666666"/>
<path d="M27.7718 62.6529C28.5611 62.6603 29.0849 62.0923 29.0831 61.3675C29.0849 60.6445 28.5593 60.1263 27.9046 60.1263C27.5062 60.1263 27.1613 60.3181 26.9677 60.6371H26.94C26.9419 59.7796 27.2665 59.2705 27.8197 59.2705C28.1831 59.2705 28.4118 59.4919 28.4892 59.8054H29.0517C28.965 59.2078 28.4947 58.7726 27.8197 58.7726C26.9419 58.7726 26.3941 59.5269 26.3941 60.84C26.3923 62.2306 27.1005 62.6474 27.7718 62.6529ZM27.77 62.1734C27.331 62.1734 27.0101 61.8046 27.0101 61.3804C27.012 60.958 27.3476 60.5892 27.7829 60.5892C28.2144 60.5892 28.5316 60.9378 28.5298 61.3749C28.5316 61.8212 28.2015 62.1734 27.77 62.1734Z" fill="#666666"/>
<path d="M41.0096 62.6013H41.6053L43.2486 59.3296V58.8242H40.7514V59.313H42.6584V59.3406L41.0096 62.6013Z" fill="#666666"/>
<circle cx="56.5212" cy="60.6304" r="6.05903" fill="#46BCFF"/>
<path d="M56.5202 62.6529C57.3058 62.6529 57.8609 62.2066 57.8646 61.5943C57.8609 61.1185 57.5271 60.7183 57.1048 60.6427V60.6205C57.4718 60.532 57.7208 60.1871 57.7245 59.7796C57.7208 59.2023 57.2118 58.7726 56.5202 58.7726C55.8212 58.7726 55.3122 59.2023 55.3159 59.7796C55.3122 60.1853 55.5611 60.532 55.9355 60.6205V60.6427C55.5058 60.7183 55.172 61.1185 55.1757 61.5943C55.172 62.2066 55.7271 62.6529 56.5202 62.6529ZM56.5202 62.1863C56.048 62.1863 55.7493 61.9355 55.7529 61.5574C55.7493 61.1646 56.0738 60.8843 56.5202 60.8843C56.9591 60.8843 57.2837 61.1646 57.2874 61.5574C57.2837 61.9355 56.9868 62.1863 56.5202 62.1863ZM56.5202 60.4287C56.1384 60.4287 55.8673 60.1871 55.871 59.8275C55.8673 59.4734 56.1292 59.2392 56.5202 59.2392C56.9038 59.2392 57.1657 59.4734 57.1693 59.8275C57.1657 60.1871 56.8964 60.4287 56.5202 60.4287Z" fill="white"/>
<path d="M69.4729 58.7726C68.6798 58.7652 68.1616 59.3351 68.1616 60.0507C68.1635 60.7718 68.6854 61.2919 69.3401 61.2919C69.7403 61.2919 70.0833 61.0964 70.277 60.7792H70.3065C70.3046 61.6478 69.9782 62.155 69.4249 62.155C69.0635 62.155 68.8311 61.9337 68.7573 61.6109H68.1948C68.2778 62.2214 68.7499 62.6529 69.4249 62.6529C70.3028 62.6529 70.8524 61.8986 70.8524 60.5763C70.8506 59.1968 70.146 58.7781 69.4729 58.7726ZM69.4747 59.2521C69.9118 59.2521 70.2346 59.6228 70.2346 60.0378C70.2364 60.4583 69.8952 60.8271 69.4637 60.8271C69.0303 60.8271 68.7167 60.4804 68.7149 60.0433C68.7149 59.6044 69.0413 59.2521 69.4747 59.2521Z" fill="#666666"/>
<path d="M81.2733 58.8242H80.7182L79.7758 59.4402V59.9861L80.6794 59.396H80.7016V62.6013H81.2733V58.8242ZM83.61 62.664C84.4823 62.664 84.9932 61.9521 84.9932 60.7146C84.9932 59.4863 84.4749 58.7726 83.61 58.7726C82.7432 58.7726 82.2268 59.4845 82.2249 60.7146C82.2249 61.9503 82.7358 62.6621 83.61 62.664ZM83.61 62.1716C83.0991 62.1716 82.7911 61.6589 82.7911 60.7146C82.793 59.774 83.101 59.2558 83.61 59.2558C84.1172 59.2558 84.427 59.774 84.427 60.7146C84.427 61.6589 84.119 62.1716 83.61 62.1716Z" fill="#666666"/>
<path d="M95.1384 58.8242H94.5832L93.6408 59.4402V59.9861L94.5445 59.396H94.5666V62.6013H95.1384V58.8242ZM97.5931 58.8242H97.0379L96.0955 59.4402V59.9861L96.9992 59.396H97.0214V62.6013H97.5931V58.8242Z" fill="#666666"/>
<path d="M12.5435 72.0184H11.9884L11.046 72.6344V73.1803L11.9496 72.5902H11.9718V75.7955H12.5435V72.0184ZM13.5652 75.7955H16.0513V75.3068H14.3509V75.2791L15.1015 74.4934C15.7931 73.7945 15.9904 73.4607 15.9904 73.0383C15.9904 72.4316 15.4962 71.9668 14.7843 71.9668C14.0779 71.9668 13.5615 72.4242 13.5615 73.1139H14.1056C14.1038 72.7082 14.3656 72.4426 14.7732 72.4426C15.1568 72.4426 15.4482 72.6787 15.4482 73.0549C15.4482 73.3887 15.249 73.6285 14.8433 74.0582L13.5652 75.3824V75.7955Z" fill="#666666"/>
<path d="M26.7443 72.0185H26.1892L25.2468 72.6345V73.1804L26.1505 72.5903H26.1726V75.7956H26.7443V72.0185ZM29.081 75.8472C29.8519 75.8472 30.4181 75.3862 30.4163 74.7591C30.4181 74.2815 30.1286 73.9384 29.6269 73.861V73.8314C30.0216 73.73 30.278 73.4202 30.2761 72.996C30.278 72.4409 29.8224 71.9669 29.0958 71.9669C28.4023 71.9669 27.8454 72.3855 27.8269 72.9997H28.3784C28.3913 72.653 28.7177 72.4427 29.0884 72.4427C29.4739 72.4427 29.7265 72.6769 29.7247 73.0255C29.7265 73.3907 29.4333 73.6304 29.0146 73.6304H28.6956V74.0952H29.0146C29.5384 74.0952 29.8409 74.3608 29.8409 74.7407C29.8409 75.1077 29.5218 75.3567 29.0773 75.3567C28.6679 75.3567 28.3488 75.1464 28.3267 74.8108H27.7476C27.7716 75.4267 28.3175 75.8472 29.081 75.8472Z" fill="#666666"/>
<path d="M40.8927 72.0185H40.3376L39.3952 72.6345V73.1804L40.2989 72.5903H40.321V75.7956H40.8927V72.0185ZM41.8351 75.0579H43.6259V75.7956H44.17V75.0579H44.6698V74.5747H44.17V72.0185H43.4673L41.8351 74.5968V75.0579ZM43.6296 74.5747H42.4327V74.5452L43.6001 72.6972H43.6296V74.5747Z" fill="#666666"/>
<path d="M55.5875 72.0185H55.0324L54.09 72.6345V73.1804L54.9937 72.5903H55.0158V75.7956H55.5875V72.0185ZM57.856 75.8472C58.6158 75.8472 59.158 75.3106 59.1562 74.5747C59.158 73.8444 58.649 73.3132 57.9611 73.3132C57.6808 73.3132 57.4207 73.4202 57.2732 73.564H57.251L57.3709 72.5073H58.9736V72.0185H56.8969L56.6849 73.9218L57.2068 73.9993C57.3488 73.872 57.6033 73.7853 57.832 73.7853C58.2801 73.789 58.6047 74.1247 58.6047 74.5858C58.6047 75.0394 58.2894 75.3677 57.856 75.3677C57.4908 75.3677 57.2013 75.1353 57.1717 74.8108H56.6185C56.6406 75.412 57.1625 75.8472 57.856 75.8472Z" fill="#666666"/>
<path d="M68.5308 72.0185H67.9757L67.0333 72.6345V73.1804L67.937 72.5903H67.9591V75.7956H68.5308V72.0185ZM70.8712 75.8472C71.6606 75.8546 72.1843 75.2866 72.1825 74.5618C72.1843 73.8388 71.6587 73.3206 71.004 73.3206C70.6056 73.3206 70.2608 73.5124 70.0671 73.8314H70.0394C70.0413 72.9739 70.3659 72.4648 70.9192 72.4648C71.2825 72.4648 71.5112 72.6862 71.5886 72.9997H72.1511C72.0644 72.4021 71.5942 71.9669 70.9192 71.9669C70.0413 71.9669 69.4935 72.7212 69.4935 74.0343C69.4917 75.4249 70.1999 75.8417 70.8712 75.8472ZM70.8694 75.3677C70.4304 75.3677 70.1095 74.9989 70.1095 74.5747C70.1114 74.1524 70.447 73.7835 70.8823 73.7835C71.3138 73.7835 71.631 74.1321 71.6292 74.5692C71.631 75.0155 71.3009 75.3677 70.8694 75.3677Z" fill="#666666"/>
<path d="M81.3373 72.0185H80.7822L79.8397 72.6345V73.1804L80.7434 72.5903H80.7656V75.7956H81.3373V72.0185ZM82.4863 75.7956H83.082L84.7252 72.5239V72.0185H82.2281V72.5073H84.135V72.5349L82.4863 75.7956Z" fill="#46BCFF"/>
<path d="M94.7247 72.0185H94.1696L93.2271 72.6345V73.1804L94.1308 72.5903H94.153V75.7956H94.7247V72.0185ZM97.0226 75.8472C97.8083 75.8472 98.3634 75.4009 98.3671 74.7886C98.3634 74.3128 98.0296 73.9126 97.6073 73.837V73.8149C97.9743 73.7263 98.2233 73.3814 98.227 72.9739C98.2233 72.3966 97.7142 71.9669 97.0226 71.9669C96.3237 71.9669 95.8147 72.3966 95.8183 72.9739C95.8147 73.3796 96.0636 73.7263 96.438 73.8149V73.837C96.0083 73.9126 95.6745 74.3128 95.6782 74.7886C95.6745 75.4009 96.2296 75.8472 97.0226 75.8472ZM97.0226 75.3806C96.5505 75.3806 96.2517 75.1298 96.2554 74.7517C96.2517 74.3589 96.5763 74.0786 97.0226 74.0786C97.4616 74.0786 97.7862 74.3589 97.7899 74.7517C97.7862 75.1298 97.4892 75.3806 97.0226 75.3806ZM97.0226 73.623C96.6409 73.623 96.3698 73.3814 96.3735 73.0218C96.3698 72.6677 96.6317 72.4335 97.0226 72.4335C97.4063 72.4335 97.6681 72.6677 97.6718 73.0218C97.6681 73.3814 97.3989 73.623 97.0226 73.623Z" fill="#666666"/>
<path d="M12.4852 85.2215H11.9301L10.9876 85.8375V86.3834L11.8913 85.7932H11.9135V88.9985H12.4852V85.2215ZM14.7628 85.1698C13.9698 85.1625 13.4516 85.7323 13.4516 86.4479C13.4534 87.169 13.9753 87.6891 14.6301 87.6891C15.0303 87.6891 15.3733 87.4936 15.5669 87.1764H15.5965C15.5946 88.045 15.2682 88.5522 14.7149 88.5522C14.3534 88.5522 14.121 88.3309 14.0473 88.0082H13.4848C13.5678 88.6186 14.0399 89.0502 14.7149 89.0502C15.5928 89.0502 16.1424 88.2959 16.1424 86.9735C16.1405 85.594 15.436 85.1754 14.7628 85.1698ZM14.7647 85.6493C15.2018 85.6493 15.5245 86.02 15.5245 86.435C15.5264 86.8555 15.1852 87.2244 14.7536 87.2244C14.3202 87.2244 14.0067 86.8776 14.0049 86.4405C14.0049 86.0016 14.3313 85.6493 14.7647 85.6493Z" fill="#666666"/>
<path d="M24.9426 88.9986H27.4287V88.5098H25.7282V88.4822L26.4789 87.6965C27.1705 86.9975 27.3678 86.6637 27.3678 86.2414C27.3678 85.6346 26.8735 85.1699 26.1617 85.1699C25.4553 85.1699 24.9389 85.6272 24.9389 86.317H25.483C25.4811 85.9113 25.743 85.6457 26.1506 85.6457C26.5342 85.6457 26.8256 85.8818 26.8256 86.258C26.8256 86.5918 26.6264 86.8316 26.2207 87.2613L24.9426 88.5855V88.9986ZM29.4426 89.0613C30.3149 89.0613 30.8258 88.3494 30.8258 87.1119C30.8258 85.8836 30.3076 85.1699 29.4426 85.1699C28.5758 85.1699 28.0594 85.8818 28.0576 87.1119C28.0576 88.3475 28.5684 89.0594 29.4426 89.0613ZM29.4426 88.5689C28.9317 88.5689 28.6237 88.0561 28.6237 87.1119C28.6256 86.1713 28.9336 85.6531 29.4426 85.6531C29.9498 85.6531 30.2596 86.1713 30.2596 87.1119C30.2596 88.0561 29.9516 88.5689 29.4426 88.5689Z" fill="#666666"/>
<path d="M39.6746 88.9986H42.1607V88.5098H40.4603V88.4822L41.2109 87.6965C41.9025 86.9975 42.0998 86.6637 42.0998 86.2414C42.0998 85.6346 41.6055 85.1699 40.8937 85.1699C40.1873 85.1699 39.6709 85.6272 39.6709 86.317H40.215C40.2131 85.9113 40.475 85.6457 40.8826 85.6457C41.2662 85.6457 41.5576 85.8818 41.5576 86.258C41.5576 86.5918 41.3584 86.8316 40.9527 87.2613L39.6746 88.5855V88.9986ZM44.2926 85.2215H43.7375L42.7951 85.8375V86.3834L43.6988 85.7932H43.7209V88.9986H44.2926V85.2215Z" fill="#46BCFF"/>
<path d="M53.6996 88.9986H56.1856V88.5098H54.4852V88.4822L55.2358 87.6965C55.9274 86.9975 56.1248 86.6637 56.1248 86.2414C56.1248 85.6346 55.6305 85.1699 54.9186 85.1699C54.2123 85.1699 53.6959 85.6272 53.6959 86.317H54.2399C54.2381 85.9113 54.5 85.6457 54.9076 85.6457C55.2912 85.6457 55.5826 85.8818 55.5826 86.258C55.5826 86.5918 55.3834 86.8316 54.9776 87.2613L53.6996 88.5855V88.9986ZM56.8846 88.9986H59.3707V88.5098H57.6703V88.4822L58.4209 87.6965C59.1125 86.9975 59.3098 86.6637 59.3098 86.2414C59.3098 85.6346 58.8156 85.1699 58.1037 85.1699C57.3973 85.1699 56.8809 85.6272 56.8809 86.317H57.425C57.4231 85.9113 57.685 85.6457 58.0926 85.6457C58.4762 85.6457 58.7676 85.8818 58.7676 86.258C58.7676 86.5918 58.5684 86.8316 58.1627 87.2613L56.8846 88.5855V88.9986Z" fill="#666666"/>
<path d="M66.7098 88.9986H69.1958V88.5098H67.4954V88.4822L68.246 87.6965C68.9376 86.9975 69.135 86.6637 69.135 86.2414C69.135 85.6346 68.6407 85.1699 67.9288 85.1699C67.2225 85.1699 66.7061 85.6272 66.7061 86.317H67.2501C67.2483 85.9113 67.5102 85.6457 67.9178 85.6457C68.3014 85.6457 68.5928 85.8818 68.5928 86.258C68.5928 86.5918 68.3936 86.8316 67.9879 87.2613L66.7098 88.5855V88.9986ZM71.2098 89.0502C71.9807 89.0502 72.5469 88.5891 72.545 87.9621C72.5469 87.4844 72.2573 87.1414 71.7557 87.0639V87.0344C72.1504 86.933 72.4067 86.6232 72.4049 86.199C72.4067 85.6438 71.9512 85.1699 71.2245 85.1699C70.5311 85.1699 69.9741 85.5885 69.9557 86.2027H70.5071C70.52 85.8559 70.8465 85.6457 71.2172 85.6457C71.6026 85.6457 71.8553 85.8799 71.8534 86.2285C71.8553 86.5936 71.562 86.8334 71.1434 86.8334H70.8243V87.2982H71.1434C71.6672 87.2982 71.9696 87.5637 71.9696 87.9436C71.9696 88.3107 71.6506 88.5596 71.2061 88.5596C70.7967 88.5596 70.4776 88.3494 70.4555 88.0137H69.8764C69.9004 88.6297 70.4463 89.0502 71.2098 89.0502Z" fill="#666666"/>
<path d="M79.4924 88.9986H81.9785V88.5098H80.2781V88.4822L81.0287 87.6965C81.7203 86.9975 81.9177 86.6637 81.9177 86.2414C81.9177 85.6346 81.4234 85.1699 80.7115 85.1699C80.0052 85.1699 79.4888 85.6272 79.4888 86.317H80.0328C80.031 85.9113 80.2929 85.6457 80.7004 85.6457C81.084 85.6457 81.3754 85.8818 81.3754 86.258C81.3754 86.5918 81.1763 86.8316 80.7705 87.2613L79.4924 88.5855V88.9986ZM82.517 88.2609H84.3078V88.9986H84.8519V88.2609H85.3517V87.7777H84.8519V85.2215H84.1492L82.517 87.7998V88.2609ZM84.3115 87.7777H83.1146V87.7482L84.282 85.9002H84.3115V87.7777Z" fill="#666666"/>
<path d="M92.8486 88.9986H95.3346V88.5098H93.6342V88.4822L94.3848 87.6965C95.0764 86.9975 95.2738 86.6637 95.2738 86.2414C95.2738 85.6346 94.7795 85.1699 94.0676 85.1699C93.3613 85.1699 92.8449 85.6272 92.8449 86.317H93.3889C93.3871 85.9113 93.649 85.6457 94.0566 85.6457C94.4402 85.6457 94.7316 85.8818 94.7316 86.258C94.7316 86.5918 94.5324 86.8316 94.1266 87.2613L92.8486 88.5855V88.9986ZM97.2803 89.0502C98.0402 89.0502 98.5824 88.5135 98.5805 87.7777C98.5824 87.0473 98.0734 86.5162 97.3855 86.5162C97.1051 86.5162 96.8451 86.6232 96.6976 86.767H96.6754L96.7953 85.7102H98.398V85.2215H96.3213L96.1092 87.1248L96.6312 87.2023C96.7732 87.075 97.0277 86.9883 97.2564 86.9883C97.7045 86.992 98.0291 87.3277 98.0291 87.7887C98.0291 88.2424 97.7137 88.5707 97.2803 88.5707C96.9152 88.5707 96.6256 88.3383 96.5961 88.0137H96.0428C96.065 88.615 96.5869 89.0502 97.2803 89.0502Z" fill="#666666"/>
<path d="M10.5779 102.197H13.064V101.708H11.3636V101.68L12.1142 100.895C12.8058 100.196 13.0031 99.8618 13.0031 99.4395C13.0031 98.8327 12.5088 98.368 11.797 98.368C11.0906 98.368 10.5742 98.8254 10.5742 99.5151H11.1183C11.1164 99.1094 11.3783 98.8438 11.7859 98.8438C12.1695 98.8438 12.4609 99.0799 12.4609 99.4561C12.4609 99.7899 12.2617 100.03 11.856 100.459L10.5779 101.784V102.197ZM15.0816 102.248C15.8709 102.256 16.3947 101.688 16.3929 100.963C16.3947 100.24 15.8691 99.7217 15.2144 99.7217C14.816 99.7217 14.4711 99.9135 14.2775 100.233H14.2498C14.2517 99.375 14.5763 98.8659 15.1295 98.8659C15.4929 98.8659 15.7216 99.0873 15.799 99.4008H16.3615C16.2748 98.8032 15.8045 98.368 15.1295 98.368C14.2517 98.368 13.7039 99.1223 13.7039 100.435C13.7021 101.826 14.4103 102.243 15.0816 102.248ZM15.0797 101.769C14.6408 101.769 14.3199 101.4 14.3199 100.976C14.3218 100.553 14.6574 100.185 15.0927 100.185C15.5242 100.185 15.8414 100.533 15.8396 100.97C15.8414 101.417 15.5113 101.769 15.0797 101.769Z" fill="#666666"/>
<path d="M25.1159 102.196H27.602V101.707H25.9016V101.68L26.6522 100.894C27.3438 100.195 27.5411 99.8613 27.5411 99.439C27.5411 98.8322 27.0469 98.3674 26.335 98.3674C25.6286 98.3674 25.1122 98.8248 25.1122 99.5146H25.6563C25.6544 99.1088 25.9163 98.8433 26.3239 98.8433C26.7075 98.8433 26.9989 99.0793 26.9989 99.4556C26.9989 99.7894 26.7997 100.029 26.394 100.459L25.1159 101.783V102.196ZM28.4282 102.196H29.0239L30.6672 98.9244V98.4191H28.17V98.9078H30.077V98.9355L28.4282 102.196Z" fill="#666666"/>
<path d="M39.1527 102.196H41.6388V101.707H39.9384V101.68L40.689 100.894C41.3806 100.195 41.5779 99.8613 41.5779 99.439C41.5779 98.8322 41.0837 98.3674 40.3718 98.3674C39.6654 98.3674 39.149 98.8248 39.149 99.5146H39.6931C39.6913 99.1088 39.9531 98.8433 40.3607 98.8433C40.7443 98.8433 41.0357 99.0793 41.0357 99.4556C41.0357 99.7894 40.8365 100.029 40.4308 100.459L39.1527 101.783V102.196ZM43.614 102.248C44.3997 102.248 44.9548 101.801 44.9585 101.189C44.9548 100.713 44.621 100.313 44.1986 100.238V100.215C44.5657 100.127 44.8146 99.782 44.8183 99.3744C44.8146 98.7972 44.3056 98.3674 43.614 98.3674C42.915 98.3674 42.406 98.7972 42.4097 99.3744C42.406 99.7801 42.655 100.127 43.0294 100.215V100.238C42.5997 100.313 42.2659 100.713 42.2695 101.189C42.2659 101.801 42.821 102.248 43.614 102.248ZM43.614 101.781C43.1419 101.781 42.8431 101.53 42.8468 101.152C42.8431 100.759 43.1677 100.479 43.614 100.479C44.0529 100.479 44.3775 100.759 44.3812 101.152C44.3775 101.53 44.0806 101.781 43.614 101.781ZM43.614 100.024C43.2323 100.024 42.9611 99.782 42.9648 99.4224C42.9611 99.0683 43.223 98.834 43.614 98.834C43.9976 98.834 44.2595 99.0683 44.2632 99.4224C44.2595 99.782 43.9902 100.024 43.614 100.024Z" fill="#666666"/>
<path d="M53.6403 102.196H56.1263V101.707H54.4259V101.68L55.1765 100.894C55.8681 100.195 56.0655 99.8613 56.0655 99.439C56.0655 98.8322 55.5712 98.3674 54.8593 98.3674C54.153 98.3674 53.6366 98.8248 53.6366 99.5146H54.1806C54.1788 99.1088 54.4407 98.8433 54.8483 98.8433C55.2319 98.8433 55.5233 99.0793 55.5233 99.4556C55.5233 99.7894 55.3241 100.029 54.9183 100.459L53.6403 101.783V102.196ZM58.0813 98.3674C57.2882 98.3601 56.77 98.9299 56.77 99.6455C56.7718 100.367 57.2938 100.887 57.9485 100.887C58.3487 100.887 58.6917 100.691 58.8854 100.374H58.9149C58.913 101.243 58.5866 101.75 58.0333 101.75C57.6718 101.75 57.4395 101.529 57.3657 101.206H56.8032C56.8862 101.816 57.3583 102.248 58.0333 102.248C58.9112 102.248 59.4608 101.493 59.4608 100.171C59.4589 98.7916 58.7544 98.373 58.0813 98.3674ZM58.0831 98.8469C58.5202 98.8469 58.8429 99.2176 58.8429 99.6326C58.8448 100.053 58.5036 100.422 58.072 100.422C57.6386 100.422 57.3251 100.075 57.3233 99.6381C57.3233 99.1992 57.6497 98.8469 58.0831 98.8469Z" fill="#46BCFF"/>
<path d="M67.9409 102.248C68.7118 102.248 69.278 101.787 69.2762 101.16C69.278 100.682 68.9885 100.339 68.4868 100.262V100.232C68.8815 100.131 69.1379 99.8207 69.136 99.3965C69.1379 98.8414 68.6823 98.3674 67.9557 98.3674C67.2622 98.3674 66.7053 98.7861 66.6868 99.4002H67.2383C67.2512 99.0535 67.5776 98.8433 67.9483 98.8433C68.3338 98.8433 68.5864 99.0775 68.5846 99.426C68.5864 99.7912 68.2932 100.031 67.8745 100.031H67.5555V100.496H67.8745C68.3983 100.496 68.7008 100.761 68.7008 101.141C68.7008 101.508 68.3817 101.757 67.9372 101.757C67.5278 101.757 67.2088 101.547 67.1866 101.211H66.6075C66.6315 101.827 67.1774 102.248 67.9409 102.248ZM71.2883 102.259C72.1606 102.259 72.6715 101.547 72.6715 100.309C72.6715 99.0812 72.1532 98.3674 71.2883 98.3674C70.4215 98.3674 69.9051 99.0793 69.9032 100.309C69.9032 101.545 70.4141 102.257 71.2883 102.259ZM71.2883 101.766C70.7774 101.766 70.4694 101.254 70.4694 100.309C70.4713 99.3689 70.7793 98.8506 71.2883 98.8506C71.7954 98.8506 72.1053 99.3689 72.1053 100.309C72.1053 101.254 71.7973 101.766 71.2883 101.766Z" fill="#666666"/>
<path d="M81.5896 102.248C82.3605 102.248 82.9267 101.787 82.9248 101.16C82.9267 100.682 82.6371 100.339 82.1355 100.262V100.232C82.5301 100.131 82.7865 99.8207 82.7846 99.3965C82.7865 98.8414 82.331 98.3674 81.6043 98.3674C80.9109 98.3674 80.3539 98.7861 80.3355 99.4002H80.8869C80.8998 99.0535 81.2262 98.8433 81.5969 98.8433C81.9824 98.8433 82.2351 99.0775 82.2332 99.426C82.2351 99.7912 81.9418 100.031 81.5232 100.031H81.2041V100.496H81.5232C82.0469 100.496 82.3494 100.761 82.3494 101.141C82.3494 101.508 82.0303 101.757 81.5859 101.757C81.1764 101.757 80.8574 101.547 80.8353 101.211H80.2562C80.2801 101.827 80.826 102.248 81.5896 102.248ZM85.0549 98.4191H84.4998L83.5574 99.0351V99.581L84.4611 98.9908H84.4832V102.196H85.0549V98.4191Z" fill="#666666"/>
<path d="M4.85596 109.768L109.196 110.553" stroke="#D9D9D9" stroke-width="0.216394" stroke-linecap="round" stroke-linejoin="bevel"/>
<path d="M11.3675 22.9263V25.5599C11.3656 25.9232 11.2033 26.115 10.9083 26.115C10.6298 26.115 10.449 25.9416 10.4435 25.641H9.64862C9.64493 26.3953 10.1835 26.7549 10.8677 26.7549C11.6331 26.7549 12.155 26.292 12.1568 25.5599V22.9263H11.3675ZM14.6189 25.4972C14.6208 25.8771 14.3607 26.0763 14.0786 26.0763C13.7816 26.0763 13.5898 25.8679 13.588 25.534V23.8705H12.8023V25.6742C12.8042 26.3363 13.1915 26.7402 13.7613 26.7402C14.1874 26.7402 14.4935 26.5207 14.6208 26.1888H14.6503V26.7033H15.4046V23.8705H14.6189V25.4972ZM16.8187 25.0656C16.8205 24.7004 17.0381 24.4865 17.3554 24.4865C17.6707 24.4865 17.8607 24.6931 17.8588 25.0398V26.7033H18.6445V24.8996C18.6445 24.2394 18.2572 23.8336 17.667 23.8336C17.2465 23.8336 16.9422 24.0402 16.815 24.3703H16.7818V23.8705H16.033V26.7033H16.8187V25.0656ZM20.5547 26.7586C21.2555 26.7586 21.7276 26.4174 21.8383 25.8918L21.1117 25.8439C21.0324 26.0597 20.8295 26.1722 20.5676 26.1722C20.1748 26.1722 19.9258 25.9121 19.9258 25.4898V25.4879H21.8549V25.2722C21.8549 24.3095 21.2721 23.8336 20.5233 23.8336C19.6897 23.8336 19.1494 24.4256 19.1494 25.2998C19.1494 26.198 19.6824 26.7586 20.5547 26.7586ZM19.9258 25.0011C19.9424 24.6783 20.1877 24.4201 20.5363 24.4201C20.8774 24.4201 21.1135 24.6635 21.1153 25.0011H19.9258ZM23.5622 26.7033H26.2549V26.0504H24.6688V26.0246L25.2202 25.4842C25.9967 24.776 26.2051 24.422 26.2051 23.9922C26.2051 23.3375 25.6702 22.8746 24.8606 22.8746C24.0676 22.8746 23.5235 23.3486 23.5253 24.09H24.2833C24.2815 23.7285 24.5102 23.5072 24.8551 23.5072C25.187 23.5072 25.4342 23.7138 25.4342 24.0457C25.4342 24.3463 25.2497 24.5529 24.9067 24.883L23.5622 26.1279V26.7033ZM28.3144 26.7863C29.2642 26.7863 29.8378 26.0633 29.8397 24.8185C29.8415 23.5828 29.2606 22.8746 28.3144 22.8746C27.3665 22.8746 26.7911 23.581 26.7892 24.8185C26.7855 26.0597 27.3628 26.7845 28.3144 26.7863ZM28.3144 26.1242C27.881 26.1242 27.6007 25.689 27.6026 24.8185C27.6044 23.9609 27.8829 23.5293 28.3144 23.5293C28.7442 23.5293 29.0245 23.9609 29.0245 24.8185C29.0263 25.689 28.746 26.1242 28.3144 26.1242ZM30.4091 26.7033H33.1017V26.0504H31.5156V26.0246L32.0671 25.4842C32.8435 24.776 33.0519 24.422 33.0519 23.9922C33.0519 23.3375 32.5171 22.8746 31.7074 22.8746C30.9144 22.8746 30.3703 23.3486 30.3722 24.09H31.1302C31.1283 23.7285 31.357 23.5072 31.7019 23.5072C32.0339 23.5072 32.281 23.7138 32.281 24.0457C32.281 24.3463 32.0966 24.5529 31.7535 24.883L30.4091 26.1279V26.7033ZM35.3236 22.9263H34.573L33.6379 23.5183V24.2265L34.5029 23.6842H34.525V26.7033H35.3236V22.9263Z" fill="#46BCFF"/>
<path d="M11.2795 116.123L9.74009 117.644L11.3069 119.138L10.833 119.605L8.78042 117.652L10.7971 115.664L11.2795 116.123Z" fill="#666666"/>
<g filter="url(#filter0_d)">
<rect x="14" y="124.033" width="38.9804" height="25.658" rx="2.46706" transform="rotate(-0.0488201 14 124.033)" fill="#F7F7F7"/>
</g>
<path d="M33.4335 147.021L32.9869 147.023L32.974 144.866L32.3164 145.095L32.3142 144.716L33.3603 144.324L33.4175 144.324L33.4335 147.021ZM35.6326 145.884C35.4834 146.043 35.3085 146.124 35.1079 146.125C34.8717 146.126 34.6829 146.045 34.5417 145.881C34.4004 145.716 34.3289 145.498 34.3273 145.229C34.3263 145.052 34.361 144.891 34.4315 144.746C34.502 144.602 34.6029 144.489 34.7341 144.409C34.8653 144.328 35.0176 144.287 35.1911 144.286C35.4618 144.284 35.6772 144.384 35.8371 144.585C35.997 144.786 36.078 145.055 36.08 145.394L36.0808 145.519C36.0837 146.004 35.9763 146.374 35.7588 146.63C35.5413 146.886 35.2154 147.018 34.781 147.024L34.7275 147.024L34.7253 146.653L34.7899 146.653C35.0544 146.648 35.2571 146.583 35.3979 146.459C35.5386 146.334 35.6169 146.142 35.6326 145.884ZM35.2 145.774C35.2898 145.773 35.3739 145.747 35.4524 145.695C35.5308 145.642 35.5913 145.571 35.6338 145.479L35.6328 145.304C35.6316 145.106 35.5901 144.947 35.5081 144.827C35.4262 144.707 35.3206 144.647 35.1914 144.648C35.0622 144.648 34.9592 144.703 34.8823 144.81C34.8066 144.916 34.7693 145.051 34.7703 145.213C34.7713 145.382 34.8108 145.518 34.889 145.62C34.9671 145.723 35.0708 145.774 35.2 145.774Z" fill="#46BCFF"/>
<path d="M30.1489 131.008L38.1984 131.001C38.8362 131 39.3365 131.578 39.3371 132.284L39.3505 141.271C39.3511 141.977 38.846 142.555 38.2083 142.555L30.1587 142.562C29.5267 142.563 29.0091 141.986 29.0085 141.279L29.0008 132.293C29.0002 131.587 29.5168 131.008 30.1489 131.008ZM30.1554 138.711L32.4537 138.709C32.4546 139.774 33.231 140.634 34.179 140.633C35.127 140.632 35.9019 139.772 35.901 138.706L38.205 138.704L38.1995 132.285L30.15 132.292L30.1554 138.711ZM31.8764 135.5L33.0255 135.499L33.0238 133.573L35.3221 133.571L35.3237 135.497L36.4728 135.496L34.1768 138.065L31.8764 135.5Z" fill="#7965F0"/>
<g filter="url(#filter1_d)">
<rect x="60" y="153.033" width="38.9804" height="25.658" rx="2.46706" transform="rotate(-0.0488201 60 153.033)" fill="#F7F7F7"/>
</g>
<path d="M79.4841 174.896C79.3349 175.056 79.16 175.136 78.9595 175.138C78.7232 175.139 78.5344 175.058 78.3932 174.894C78.2519 174.728 78.1805 174.511 78.1789 174.242C78.1778 174.064 78.2125 173.904 78.2831 173.759C78.3536 173.615 78.4544 173.502 78.5856 173.421C78.7168 173.341 78.8691 173.3 79.0427 173.299C79.3134 173.297 79.5287 173.397 79.6886 173.598C79.8486 173.798 79.9295 174.068 79.9315 174.406L79.9323 174.532C79.9352 175.017 79.8279 175.387 79.6103 175.643C79.3928 175.899 79.0669 176.03 78.6326 176.037L78.579 176.037L78.5768 175.666L78.6414 175.666C78.906 175.66 79.1086 175.596 79.2494 175.472C79.3902 175.347 79.4684 175.155 79.4841 174.896ZM79.0515 174.786C79.1413 174.786 79.2255 174.76 79.3039 174.707C79.3824 174.655 79.4428 174.583 79.4854 174.492L79.4843 174.317C79.4831 174.119 79.4416 173.96 79.3597 173.839C79.2777 173.719 79.1722 173.66 79.043 173.66C78.9138 173.661 78.8107 173.715 78.7338 173.823C78.6582 173.929 78.6208 174.064 78.6218 174.226C78.6228 174.395 78.6624 174.53 78.7405 174.633C78.8186 174.736 78.9223 174.787 79.0515 174.786ZM82.0483 174.027C82.0491 174.158 82.0159 174.276 81.9489 174.38C81.8818 174.482 81.79 174.563 81.6735 174.623C81.8141 174.688 81.9223 174.776 81.9981 174.889C82.075 175.002 82.1139 175.129 82.1148 175.272C82.1162 175.508 82.0373 175.696 81.8782 175.836C81.719 175.975 81.5066 176.045 81.2408 176.047C80.9738 176.049 80.7592 175.98 80.5972 175.842C80.4364 175.704 80.3553 175.518 80.3539 175.283C80.3531 175.139 80.3904 175.009 80.4661 174.894C80.5417 174.779 80.6482 174.691 80.7856 174.628C80.6696 174.57 80.5775 174.49 80.5092 174.388C80.4421 174.285 80.4082 174.168 80.4074 174.036C80.4061 173.807 80.4788 173.625 80.6257 173.49C80.7725 173.355 80.9715 173.287 81.2225 173.286C81.4748 173.284 81.6751 173.35 81.8236 173.483C81.972 173.617 82.0469 173.798 82.0483 174.027ZM81.6661 175.253C81.6653 175.12 81.6247 175.013 81.5442 174.932C81.465 174.85 81.3602 174.81 81.2297 174.81C81.0993 174.811 80.9949 174.852 80.9167 174.934C80.8396 175.016 80.8015 175.124 80.8023 175.258C80.8031 175.389 80.8419 175.494 80.9186 175.573C80.9966 175.651 81.1033 175.69 81.2386 175.689C81.374 175.688 81.479 175.649 81.5536 175.573C81.6294 175.496 81.6669 175.389 81.6661 175.253ZM81.6017 174.046C81.601 173.929 81.5666 173.833 81.4985 173.758C81.4304 173.683 81.3391 173.645 81.2246 173.646C81.1102 173.646 81.02 173.683 80.954 173.756C80.8879 173.828 80.8553 173.926 80.856 174.05C80.8568 174.173 80.8906 174.271 80.9575 174.343C81.0256 174.415 81.1168 174.451 81.2313 174.45C81.3457 174.45 81.4359 174.413 81.502 174.34C81.5692 174.267 81.6025 174.169 81.6017 174.046Z" fill="#46BCFF"/>
<circle cx="47.4564" cy="84.2573" r="1.01736" fill="#46BCFF"/>
<rect x="1.93145" y="2.48773" width="109.151" height="193.705" rx="5.76503" transform="rotate(-0.292015 1.93145 2.48773)" fill="white" stroke="black" stroke-width="3.84336"/>
<path d="M30 3.28583L86.1123 2.99984L86.1279 6.07449C86.1431 9.04613 83.7464 11.4674 80.7747 11.4825L35.4237 11.7137C32.4521 11.7288 30.0308 9.33211 30.0157 6.36047L30 3.28583Z" fill="black"/>
<path d="M10.087 32.4223V36.1993H10.6292V33.4643H10.6643L11.7782 36.1938H12.2282L13.3421 33.4661H13.3772V36.1993H13.9194V32.4223H13.2278L12.0253 35.3583H11.9811L10.7786 32.4223H10.087ZM15.8969 36.2565C16.6955 36.2565 17.2174 35.6719 17.2174 34.7958C17.2174 33.9143 16.6955 33.3296 15.8969 33.3296C15.0983 33.3296 14.5764 33.9143 14.5764 34.7958C14.5764 35.6719 15.0983 36.2565 15.8969 36.2565ZM15.8987 35.7936C15.3768 35.7936 15.1334 35.338 15.1334 34.794C15.1334 34.2518 15.3768 33.7907 15.8987 33.7907C16.417 33.7907 16.6604 34.2518 16.6604 34.794C16.6604 35.338 16.417 35.7936 15.8987 35.7936Z" fill="black"/>
<path d="M25.0348 32.9127H26.2114V36.1992H26.7795V32.9127H27.9579V32.4221H25.0348V32.9127ZM29.9687 35.0244C29.9705 35.5057 29.6127 35.7344 29.3029 35.7344C28.9617 35.7344 28.7256 35.4873 28.7256 35.1018V33.3664H28.1742V35.1682C28.1742 35.8709 28.5596 36.2361 29.1037 36.2361C29.5297 36.2361 29.8193 36.0111 29.9502 35.7086H29.9797V36.1992H30.5219V33.3664H29.9687V35.0244Z" fill="black"/>
<path d="M39.3623 36.1992H39.9377L40.7325 33.3701H40.7621L41.5569 36.1992H42.1305L43.1799 32.4221H42.5787L41.8446 35.349H41.8096L41.0442 32.4221H40.4504L39.685 35.3471H39.65L38.9141 32.4221H38.3147L39.3623 36.1992ZM44.5972 36.2564C45.215 36.2564 45.6521 35.9521 45.7775 35.491L45.2556 35.3969C45.156 35.6644 44.9163 35.8008 44.6027 35.8008C44.1306 35.8008 43.8134 35.4947 43.7986 34.9488H45.8126V34.7533C45.8126 33.7297 45.2003 33.3295 44.5585 33.3295C43.7691 33.3295 43.249 33.9307 43.249 34.8012C43.249 35.6809 43.7618 36.2564 44.5972 36.2564ZM43.8005 34.5357C43.8226 34.1336 44.114 33.785 44.5622 33.785C44.99 33.785 45.2704 34.1023 45.2722 34.5357H43.8005Z" fill="black"/>
<path d="M53.6048 32.9127H54.7814V36.1992H55.3495V32.9127H56.528V32.4221H53.6048V32.9127ZM57.6811 34.5172C57.6811 34.0654 57.9669 33.8072 58.3598 33.8072C58.7397 33.8072 58.9665 34.0488 58.9665 34.4637V36.1992H59.518V34.3973C59.518 33.691 59.1307 33.3295 58.5479 33.3295C58.1071 33.3295 57.8415 33.5213 57.7087 33.8275H57.6737V32.4221H57.1296V36.1992H57.6811V34.5172Z" fill="black"/>
<path d="M67.4194 36.1992H67.9893V34.5523H69.5938V34.0635H67.9893V32.9127H69.7616V32.4221H67.4194V36.1992ZM70.3827 36.1992H70.9341V34.4693C70.9341 34.0986 71.22 33.8311 71.611 33.8311C71.7253 33.8311 71.8544 33.8514 71.8987 33.8643V33.3369C71.8433 33.3295 71.7345 33.324 71.6644 33.324C71.3325 33.324 71.0485 33.5121 70.9452 33.8164H70.9157V33.3664H70.3827V36.1992Z" fill="black"/>
<path d="M81.5975 33.4143H82.1471C82.1305 32.8094 81.5956 32.3705 80.8284 32.3705C80.0704 32.3705 79.4895 32.8039 79.4895 33.4549C79.4895 33.9805 79.8657 34.2885 80.4725 34.4527L80.9188 34.5744C81.3227 34.6814 81.6344 34.8141 81.6344 35.1498C81.6344 35.5187 81.2821 35.7621 80.7971 35.7621C80.3581 35.7621 79.993 35.5666 79.9598 35.1553H79.3881C79.4249 35.8396 79.9543 36.2619 80.8008 36.2619C81.6879 36.2619 82.1987 35.7953 82.1987 35.1553C82.1987 34.4748 81.592 34.2111 81.1124 34.093L80.7436 33.9971C80.4485 33.9215 80.0557 33.7832 80.0575 33.4217C80.0575 33.1008 80.3508 32.8629 80.8155 32.8629C81.2489 32.8629 81.5569 33.0658 81.5975 33.4143ZM83.6598 36.2619C84.1283 36.2619 84.392 36.024 84.4971 35.8119H84.5193V36.1992H85.0578V34.318C85.0578 33.4936 84.4086 33.3295 83.9586 33.3295C83.4459 33.3295 82.9738 33.5361 82.7893 34.0525L83.3076 34.1705C83.3887 33.9695 83.5953 33.7758 83.966 33.7758C84.3219 33.7758 84.5045 33.9621 84.5045 34.283V34.2959C84.5045 34.4969 84.298 34.4932 83.7889 34.5523C83.2523 34.615 82.7027 34.7551 82.7027 35.3988C82.7027 35.9557 83.1213 36.2619 83.6598 36.2619ZM83.7797 35.8193C83.468 35.8193 83.243 35.6791 83.243 35.4062C83.243 35.1111 83.5049 35.0059 83.824 34.9635C84.0029 34.9396 84.4271 34.8916 84.5064 34.8123V35.1775C84.5064 35.5131 84.2389 35.8193 83.7797 35.8193Z" fill="black"/>
<path d="M94.9477 33.4143H95.4973C95.4807 32.8094 94.9459 32.3705 94.1786 32.3705C93.4206 32.3705 92.8397 32.8039 92.8397 33.4549C92.8397 33.9805 93.2159 34.2885 93.8227 34.4527L94.269 34.5744C94.6729 34.6814 94.9846 34.8141 94.9846 35.1498C94.9846 35.5187 94.6323 35.7621 94.1473 35.7621C93.7084 35.7621 93.3432 35.5666 93.31 35.1553H92.7383C92.7752 35.8396 93.3045 36.2619 94.151 36.2619C95.0381 36.2619 95.5489 35.7953 95.5489 35.1553C95.5489 34.4748 94.9422 34.2111 94.4627 34.093L94.0938 33.9971C93.7987 33.9215 93.4059 33.7832 93.4077 33.4217C93.4077 33.1008 93.701 32.8629 94.1657 32.8629C94.5991 32.8629 94.9071 33.0658 94.9477 33.4143ZM97.9801 35.0244C97.982 35.5057 97.6242 35.7344 97.3144 35.7344C96.9732 35.7344 96.7371 35.4873 96.7371 35.1018V33.3664H96.1857V35.1682C96.1857 35.8709 96.5711 36.2361 97.1152 36.2361C97.5412 36.2361 97.8307 36.0111 97.9617 35.7086H97.9912V36.1992H98.5334V33.3664H97.9801V35.0244Z" fill="black"/>
<path d="M57.0892 45.6195H56.5341L55.5917 46.2354V46.7813L56.4954 46.1912H56.5175V49.3965H57.0892V45.6195Z" fill="#666666"/>
<path d="M68.3831 49.3965H70.8692V48.9078H69.1688V48.8801L69.9194 48.0945C70.611 47.3955 70.8083 47.0617 70.8083 46.6393C70.8083 46.0326 70.3141 45.5678 69.6022 45.5678C68.8958 45.5678 68.3794 46.0252 68.3794 46.715H68.9235C68.9217 46.3092 69.1835 46.0436 69.5911 46.0436C69.9747 46.0436 70.2661 46.2797 70.2661 46.6559C70.2661 46.9897 70.0669 47.2295 69.6612 47.6592L68.3831 48.9834V49.3965Z" fill="#666666"/>
<path d="M82.2762 49.4482C83.0471 49.4482 83.6133 48.9871 83.6114 48.36C83.6133 47.8824 83.3237 47.5393 82.8221 47.4619V47.4324C83.2167 47.3309 83.4731 47.0211 83.4713 46.5969C83.4731 46.0418 83.0176 45.5678 82.2909 45.5678C81.5975 45.5678 81.0405 45.9865 81.0221 46.6006H81.5735C81.5864 46.2539 81.9128 46.0436 82.2835 46.0436C82.669 46.0436 82.9217 46.2779 82.9198 46.6264C82.9217 46.9916 82.6284 47.2313 82.2098 47.2313H81.8907V47.6961H82.2098C82.7335 47.6961 83.036 47.9617 83.036 48.3416C83.036 48.7086 82.7169 48.9576 82.2725 48.9576C81.8631 48.9576 81.544 48.7473 81.5219 48.4117H80.9428C80.9667 49.0277 81.5126 49.4482 82.2762 49.4482Z" fill="#666666"/>
<path d="M94.2727 48.6588H96.0635V49.3965H96.6075V48.6588H97.1073V48.1756H96.6075V45.6195H95.9049L94.2727 48.1977V48.6588ZM96.0672 48.1756H94.8702V48.1461L96.0376 46.2981H96.0672V48.1756Z" fill="#666666"/>
<path d="M13.5667 62.6529C14.3265 62.6529 14.8687 62.1162 14.8669 61.3804C14.8687 60.6501 14.3597 60.1189 13.6718 60.1189C13.3915 60.1189 13.1314 60.2259 12.9839 60.3697H12.9618L13.0817 59.313H14.6843V58.8242H12.6077L12.3956 60.7275L12.9175 60.805C13.0595 60.6777 13.314 60.591 13.5427 60.591C13.9909 60.5947 14.3155 60.9304 14.3155 61.3914C14.3155 61.8451 14.0001 62.1734 13.5667 62.1734C13.2015 62.1734 12.912 61.941 12.8825 61.6164H12.3292C12.3513 62.2177 12.8732 62.6529 13.5667 62.6529Z" fill="#666666"/>
<path d="M27.7718 62.6529C28.5611 62.6603 29.0849 62.0923 29.0831 61.3675C29.0849 60.6445 28.5593 60.1263 27.9046 60.1263C27.5062 60.1263 27.1613 60.3181 26.9677 60.6371H26.94C26.9419 59.7796 27.2665 59.2705 27.8197 59.2705C28.1831 59.2705 28.4118 59.4919 28.4892 59.8054H29.0517C28.965 59.2078 28.4947 58.7726 27.8197 58.7726C26.9419 58.7726 26.3941 59.5269 26.3941 60.84C26.3923 62.2306 27.1005 62.6474 27.7718 62.6529ZM27.77 62.1734C27.331 62.1734 27.0101 61.8046 27.0101 61.3804C27.012 60.958 27.3476 60.5892 27.7829 60.5892C28.2144 60.5892 28.5316 60.9378 28.5298 61.3749C28.5316 61.8212 28.2015 62.1734 27.77 62.1734Z" fill="#666666"/>
<path d="M41.0096 62.6013H41.6053L43.2486 59.3296V58.8242H40.7514V59.313H42.6584V59.3406L41.0096 62.6013Z" fill="#666666"/>
<circle cx="56.5212" cy="60.6304" r="6.05903" fill="#46BCFF"/>
<path d="M56.5202 62.6529C57.3058 62.6529 57.8609 62.2066 57.8646 61.5943C57.8609 61.1185 57.5271 60.7183 57.1048 60.6427V60.6205C57.4718 60.532 57.7208 60.1871 57.7245 59.7796C57.7208 59.2023 57.2118 58.7726 56.5202 58.7726C55.8212 58.7726 55.3122 59.2023 55.3159 59.7796C55.3122 60.1853 55.5611 60.532 55.9355 60.6205V60.6427C55.5058 60.7183 55.172 61.1185 55.1757 61.5943C55.172 62.2066 55.7271 62.6529 56.5202 62.6529ZM56.5202 62.1863C56.048 62.1863 55.7493 61.9355 55.7529 61.5574C55.7493 61.1646 56.0738 60.8843 56.5202 60.8843C56.9591 60.8843 57.2837 61.1646 57.2874 61.5574C57.2837 61.9355 56.9868 62.1863 56.5202 62.1863ZM56.5202 60.4287C56.1384 60.4287 55.8673 60.1871 55.871 59.8275C55.8673 59.4734 56.1292 59.2392 56.5202 59.2392C56.9038 59.2392 57.1657 59.4734 57.1693 59.8275C57.1657 60.1871 56.8964 60.4287 56.5202 60.4287Z" fill="white"/>
<path d="M69.4729 58.7726C68.6798 58.7652 68.1616 59.3351 68.1616 60.0507C68.1635 60.7718 68.6854 61.2919 69.3401 61.2919C69.7403 61.2919 70.0833 61.0964 70.277 60.7792H70.3065C70.3046 61.6478 69.9782 62.155 69.4249 62.155C69.0635 62.155 68.8311 61.9337 68.7573 61.6109H68.1948C68.2778 62.2214 68.7499 62.6529 69.4249 62.6529C70.3028 62.6529 70.8524 61.8986 70.8524 60.5763C70.8506 59.1968 70.146 58.7781 69.4729 58.7726ZM69.4747 59.2521C69.9118 59.2521 70.2346 59.6228 70.2346 60.0378C70.2364 60.4583 69.8952 60.8271 69.4637 60.8271C69.0303 60.8271 68.7167 60.4804 68.7149 60.0433C68.7149 59.6044 69.0413 59.2521 69.4747 59.2521Z" fill="#666666"/>
<path d="M81.2733 58.8242H80.7182L79.7758 59.4402V59.9861L80.6794 59.396H80.7016V62.6013H81.2733V58.8242ZM83.61 62.664C84.4823 62.664 84.9932 61.9521 84.9932 60.7146C84.9932 59.4863 84.4749 58.7726 83.61 58.7726C82.7432 58.7726 82.2268 59.4845 82.2249 60.7146C82.2249 61.9503 82.7358 62.6621 83.61 62.664ZM83.61 62.1716C83.0991 62.1716 82.7911 61.6589 82.7911 60.7146C82.793 59.774 83.101 59.2558 83.61 59.2558C84.1172 59.2558 84.427 59.774 84.427 60.7146C84.427 61.6589 84.119 62.1716 83.61 62.1716Z" fill="#666666"/>
<path d="M95.1384 58.8242H94.5832L93.6408 59.4402V59.9861L94.5445 59.396H94.5666V62.6013H95.1384V58.8242ZM97.5931 58.8242H97.0379L96.0955 59.4402V59.9861L96.9992 59.396H97.0214V62.6013H97.5931V58.8242Z" fill="#666666"/>
<path d="M12.5435 72.0184H11.9884L11.046 72.6344V73.1803L11.9496 72.5902H11.9718V75.7955H12.5435V72.0184ZM13.5652 75.7955H16.0513V75.3068H14.3509V75.2791L15.1015 74.4934C15.7931 73.7945 15.9904 73.4607 15.9904 73.0383C15.9904 72.4316 15.4962 71.9668 14.7843 71.9668C14.0779 71.9668 13.5615 72.4242 13.5615 73.1139H14.1056C14.1038 72.7082 14.3656 72.4426 14.7732 72.4426C15.1568 72.4426 15.4482 72.6787 15.4482 73.0549C15.4482 73.3887 15.249 73.6285 14.8433 74.0582L13.5652 75.3824V75.7955Z" fill="#666666"/>
<path d="M26.7443 72.0185H26.1892L25.2468 72.6345V73.1804L26.1505 72.5903H26.1726V75.7956H26.7443V72.0185ZM29.081 75.8472C29.8519 75.8472 30.4181 75.3862 30.4163 74.7591C30.4181 74.2815 30.1286 73.9384 29.6269 73.861V73.8314C30.0216 73.73 30.278 73.4202 30.2761 72.996C30.278 72.4409 29.8224 71.9669 29.0958 71.9669C28.4023 71.9669 27.8454 72.3855 27.8269 72.9997H28.3784C28.3913 72.653 28.7177 72.4427 29.0884 72.4427C29.4739 72.4427 29.7265 72.6769 29.7247 73.0255C29.7265 73.3907 29.4333 73.6304 29.0146 73.6304H28.6956V74.0952H29.0146C29.5384 74.0952 29.8409 74.3608 29.8409 74.7407C29.8409 75.1077 29.5218 75.3567 29.0773 75.3567C28.6679 75.3567 28.3488 75.1464 28.3267 74.8108H27.7476C27.7716 75.4267 28.3175 75.8472 29.081 75.8472Z" fill="#666666"/>
<path d="M40.8927 72.0185H40.3376L39.3952 72.6345V73.1804L40.2989 72.5903H40.321V75.7956H40.8927V72.0185ZM41.8351 75.0579H43.6259V75.7956H44.17V75.0579H44.6698V74.5747H44.17V72.0185H43.4673L41.8351 74.5968V75.0579ZM43.6296 74.5747H42.4327V74.5452L43.6001 72.6972H43.6296V74.5747Z" fill="#666666"/>
<path d="M55.5875 72.0185H55.0324L54.09 72.6345V73.1804L54.9937 72.5903H55.0158V75.7956H55.5875V72.0185ZM57.856 75.8472C58.6158 75.8472 59.158 75.3106 59.1562 74.5747C59.158 73.8444 58.649 73.3132 57.9611 73.3132C57.6808 73.3132 57.4207 73.4202 57.2732 73.564H57.251L57.3709 72.5073H58.9736V72.0185H56.8969L56.6849 73.9218L57.2068 73.9993C57.3488 73.872 57.6033 73.7853 57.832 73.7853C58.2801 73.789 58.6047 74.1247 58.6047 74.5858C58.6047 75.0394 58.2894 75.3677 57.856 75.3677C57.4908 75.3677 57.2013 75.1353 57.1717 74.8108H56.6185C56.6406 75.412 57.1625 75.8472 57.856 75.8472Z" fill="#666666"/>
<path d="M68.5308 72.0185H67.9757L67.0333 72.6345V73.1804L67.937 72.5903H67.9591V75.7956H68.5308V72.0185ZM70.8712 75.8472C71.6606 75.8546 72.1843 75.2866 72.1825 74.5618C72.1843 73.8388 71.6587 73.3206 71.004 73.3206C70.6056 73.3206 70.2608 73.5124 70.0671 73.8314H70.0394C70.0413 72.9739 70.3659 72.4648 70.9192 72.4648C71.2825 72.4648 71.5112 72.6862 71.5886 72.9997H72.1511C72.0644 72.4021 71.5942 71.9669 70.9192 71.9669C70.0413 71.9669 69.4935 72.7212 69.4935 74.0343C69.4917 75.4249 70.1999 75.8417 70.8712 75.8472ZM70.8694 75.3677C70.4304 75.3677 70.1095 74.9989 70.1095 74.5747C70.1114 74.1524 70.447 73.7835 70.8823 73.7835C71.3138 73.7835 71.631 74.1321 71.6292 74.5692C71.631 75.0155 71.3009 75.3677 70.8694 75.3677Z" fill="#666666"/>
<path d="M81.3373 72.0185H80.7822L79.8397 72.6345V73.1804L80.7434 72.5903H80.7656V75.7956H81.3373V72.0185ZM82.4863 75.7956H83.082L84.7252 72.5239V72.0185H82.2281V72.5073H84.135V72.5349L82.4863 75.7956Z" fill="#46BCFF"/>
<path d="M94.7247 72.0185H94.1696L93.2271 72.6345V73.1804L94.1308 72.5903H94.153V75.7956H94.7247V72.0185ZM97.0226 75.8472C97.8083 75.8472 98.3634 75.4009 98.3671 74.7886C98.3634 74.3128 98.0296 73.9126 97.6073 73.837V73.8149C97.9743 73.7263 98.2233 73.3814 98.227 72.9739C98.2233 72.3966 97.7142 71.9669 97.0226 71.9669C96.3237 71.9669 95.8147 72.3966 95.8183 72.9739C95.8147 73.3796 96.0636 73.7263 96.438 73.8149V73.837C96.0083 73.9126 95.6745 74.3128 95.6782 74.7886C95.6745 75.4009 96.2296 75.8472 97.0226 75.8472ZM97.0226 75.3806C96.5505 75.3806 96.2517 75.1298 96.2554 74.7517C96.2517 74.3589 96.5763 74.0786 97.0226 74.0786C97.4616 74.0786 97.7862 74.3589 97.7899 74.7517C97.7862 75.1298 97.4892 75.3806 97.0226 75.3806ZM97.0226 73.623C96.6409 73.623 96.3698 73.3814 96.3735 73.0218C96.3698 72.6677 96.6317 72.4335 97.0226 72.4335C97.4063 72.4335 97.6681 72.6677 97.6718 73.0218C97.6681 73.3814 97.3989 73.623 97.0226 73.623Z" fill="#666666"/>
<path d="M12.4852 85.2215H11.9301L10.9876 85.8375V86.3834L11.8913 85.7932H11.9135V88.9985H12.4852V85.2215ZM14.7628 85.1698C13.9698 85.1625 13.4516 85.7323 13.4516 86.4479C13.4534 87.169 13.9753 87.6891 14.6301 87.6891C15.0303 87.6891 15.3733 87.4936 15.5669 87.1764H15.5965C15.5946 88.045 15.2682 88.5522 14.7149 88.5522C14.3534 88.5522 14.121 88.3309 14.0473 88.0082H13.4848C13.5678 88.6186 14.0399 89.0502 14.7149 89.0502C15.5928 89.0502 16.1424 88.2959 16.1424 86.9735C16.1405 85.594 15.436 85.1754 14.7628 85.1698ZM14.7647 85.6493C15.2018 85.6493 15.5245 86.02 15.5245 86.435C15.5264 86.8555 15.1852 87.2244 14.7536 87.2244C14.3202 87.2244 14.0067 86.8776 14.0049 86.4405C14.0049 86.0016 14.3313 85.6493 14.7647 85.6493Z" fill="#666666"/>
<path d="M24.9426 88.9986H27.4287V88.5098H25.7282V88.4822L26.4789 87.6965C27.1705 86.9975 27.3678 86.6637 27.3678 86.2414C27.3678 85.6346 26.8735 85.1699 26.1617 85.1699C25.4553 85.1699 24.9389 85.6272 24.9389 86.317H25.483C25.4811 85.9113 25.743 85.6457 26.1506 85.6457C26.5342 85.6457 26.8256 85.8818 26.8256 86.258C26.8256 86.5918 26.6264 86.8316 26.2207 87.2613L24.9426 88.5855V88.9986ZM29.4426 89.0613C30.3149 89.0613 30.8258 88.3494 30.8258 87.1119C30.8258 85.8836 30.3076 85.1699 29.4426 85.1699C28.5758 85.1699 28.0594 85.8818 28.0576 87.1119C28.0576 88.3475 28.5684 89.0594 29.4426 89.0613ZM29.4426 88.5689C28.9317 88.5689 28.6237 88.0561 28.6237 87.1119C28.6256 86.1713 28.9336 85.6531 29.4426 85.6531C29.9498 85.6531 30.2596 86.1713 30.2596 87.1119C30.2596 88.0561 29.9516 88.5689 29.4426 88.5689Z" fill="#666666"/>
<path d="M39.6746 88.9986H42.1607V88.5098H40.4603V88.4822L41.2109 87.6965C41.9025 86.9975 42.0998 86.6637 42.0998 86.2414C42.0998 85.6346 41.6055 85.1699 40.8937 85.1699C40.1873 85.1699 39.6709 85.6272 39.6709 86.317H40.215C40.2131 85.9113 40.475 85.6457 40.8826 85.6457C41.2662 85.6457 41.5576 85.8818 41.5576 86.258C41.5576 86.5918 41.3584 86.8316 40.9527 87.2613L39.6746 88.5855V88.9986ZM44.2926 85.2215H43.7375L42.7951 85.8375V86.3834L43.6988 85.7932H43.7209V88.9986H44.2926V85.2215Z" fill="#46BCFF"/>
<path d="M53.6996 88.9986H56.1856V88.5098H54.4852V88.4822L55.2358 87.6965C55.9274 86.9975 56.1248 86.6637 56.1248 86.2414C56.1248 85.6346 55.6305 85.1699 54.9186 85.1699C54.2123 85.1699 53.6959 85.6272 53.6959 86.317H54.2399C54.2381 85.9113 54.5 85.6457 54.9076 85.6457C55.2912 85.6457 55.5826 85.8818 55.5826 86.258C55.5826 86.5918 55.3834 86.8316 54.9776 87.2613L53.6996 88.5855V88.9986ZM56.8846 88.9986H59.3707V88.5098H57.6703V88.4822L58.4209 87.6965C59.1125 86.9975 59.3098 86.6637 59.3098 86.2414C59.3098 85.6346 58.8156 85.1699 58.1037 85.1699C57.3973 85.1699 56.8809 85.6272 56.8809 86.317H57.425C57.4231 85.9113 57.685 85.6457 58.0926 85.6457C58.4762 85.6457 58.7676 85.8818 58.7676 86.258C58.7676 86.5918 58.5684 86.8316 58.1627 87.2613L56.8846 88.5855V88.9986Z" fill="#666666"/>
<path d="M66.7098 88.9986H69.1958V88.5098H67.4954V88.4822L68.246 87.6965C68.9376 86.9975 69.135 86.6637 69.135 86.2414C69.135 85.6346 68.6407 85.1699 67.9288 85.1699C67.2225 85.1699 66.7061 85.6272 66.7061 86.317H67.2501C67.2483 85.9113 67.5102 85.6457 67.9178 85.6457C68.3014 85.6457 68.5928 85.8818 68.5928 86.258C68.5928 86.5918 68.3936 86.8316 67.9879 87.2613L66.7098 88.5855V88.9986ZM71.2098 89.0502C71.9807 89.0502 72.5469 88.5891 72.545 87.9621C72.5469 87.4844 72.2573 87.1414 71.7557 87.0639V87.0344C72.1504 86.933 72.4067 86.6232 72.4049 86.199C72.4067 85.6438 71.9512 85.1699 71.2245 85.1699C70.5311 85.1699 69.9741 85.5885 69.9557 86.2027H70.5071C70.52 85.8559 70.8465 85.6457 71.2172 85.6457C71.6026 85.6457 71.8553 85.8799 71.8534 86.2285C71.8553 86.5936 71.562 86.8334 71.1434 86.8334H70.8243V87.2982H71.1434C71.6672 87.2982 71.9696 87.5637 71.9696 87.9436C71.9696 88.3107 71.6506 88.5596 71.2061 88.5596C70.7967 88.5596 70.4776 88.3494 70.4555 88.0137H69.8764C69.9004 88.6297 70.4463 89.0502 71.2098 89.0502Z" fill="#666666"/>
<path d="M79.4924 88.9986H81.9785V88.5098H80.2781V88.4822L81.0287 87.6965C81.7203 86.9975 81.9177 86.6637 81.9177 86.2414C81.9177 85.6346 81.4234 85.1699 80.7115 85.1699C80.0052 85.1699 79.4888 85.6272 79.4888 86.317H80.0328C80.031 85.9113 80.2929 85.6457 80.7004 85.6457C81.084 85.6457 81.3754 85.8818 81.3754 86.258C81.3754 86.5918 81.1763 86.8316 80.7705 87.2613L79.4924 88.5855V88.9986ZM82.517 88.2609H84.3078V88.9986H84.8519V88.2609H85.3517V87.7777H84.8519V85.2215H84.1492L82.517 87.7998V88.2609ZM84.3115 87.7777H83.1146V87.7482L84.282 85.9002H84.3115V87.7777Z" fill="#666666"/>
<path d="M92.8486 88.9986H95.3346V88.5098H93.6342V88.4822L94.3848 87.6965C95.0764 86.9975 95.2738 86.6637 95.2738 86.2414C95.2738 85.6346 94.7795 85.1699 94.0676 85.1699C93.3613 85.1699 92.8449 85.6272 92.8449 86.317H93.3889C93.3871 85.9113 93.649 85.6457 94.0566 85.6457C94.4402 85.6457 94.7316 85.8818 94.7316 86.258C94.7316 86.5918 94.5324 86.8316 94.1266 87.2613L92.8486 88.5855V88.9986ZM97.2803 89.0502C98.0402 89.0502 98.5824 88.5135 98.5805 87.7777C98.5824 87.0473 98.0734 86.5162 97.3855 86.5162C97.1051 86.5162 96.8451 86.6232 96.6976 86.767H96.6754L96.7953 85.7102H98.398V85.2215H96.3213L96.1092 87.1248L96.6312 87.2023C96.7732 87.075 97.0277 86.9883 97.2564 86.9883C97.7045 86.992 98.0291 87.3277 98.0291 87.7887C98.0291 88.2424 97.7137 88.5707 97.2803 88.5707C96.9152 88.5707 96.6256 88.3383 96.5961 88.0137H96.0428C96.065 88.615 96.5869 89.0502 97.2803 89.0502Z" fill="#666666"/>
<path d="M10.5779 102.197H13.064V101.708H11.3636V101.68L12.1142 100.895C12.8058 100.196 13.0031 99.8618 13.0031 99.4395C13.0031 98.8327 12.5088 98.368 11.797 98.368C11.0906 98.368 10.5742 98.8254 10.5742 99.5151H11.1183C11.1164 99.1094 11.3783 98.8438 11.7859 98.8438C12.1695 98.8438 12.4609 99.0799 12.4609 99.4561C12.4609 99.7899 12.2617 100.03 11.856 100.459L10.5779 101.784V102.197ZM15.0816 102.248C15.8709 102.256 16.3947 101.688 16.3929 100.963C16.3947 100.24 15.8691 99.7217 15.2144 99.7217C14.816 99.7217 14.4711 99.9135 14.2775 100.233H14.2498C14.2517 99.375 14.5763 98.8659 15.1295 98.8659C15.4929 98.8659 15.7216 99.0873 15.799 99.4008H16.3615C16.2748 98.8032 15.8045 98.368 15.1295 98.368C14.2517 98.368 13.7039 99.1223 13.7039 100.435C13.7021 101.826 14.4103 102.243 15.0816 102.248ZM15.0797 101.769C14.6408 101.769 14.3199 101.4 14.3199 100.976C14.3218 100.553 14.6574 100.185 15.0927 100.185C15.5242 100.185 15.8414 100.533 15.8396 100.97C15.8414 101.417 15.5113 101.769 15.0797 101.769Z" fill="#666666"/>
<path d="M25.1159 102.196H27.602V101.707H25.9016V101.68L26.6522 100.894C27.3438 100.195 27.5411 99.8613 27.5411 99.439C27.5411 98.8322 27.0469 98.3674 26.335 98.3674C25.6286 98.3674 25.1122 98.8248 25.1122 99.5146H25.6563C25.6544 99.1088 25.9163 98.8433 26.3239 98.8433C26.7075 98.8433 26.9989 99.0793 26.9989 99.4556C26.9989 99.7894 26.7997 100.029 26.394 100.459L25.1159 101.783V102.196ZM28.4282 102.196H29.0239L30.6672 98.9244V98.4191H28.17V98.9078H30.077V98.9355L28.4282 102.196Z" fill="#666666"/>
<path d="M39.1527 102.196H41.6388V101.707H39.9384V101.68L40.689 100.894C41.3806 100.195 41.5779 99.8613 41.5779 99.439C41.5779 98.8322 41.0837 98.3674 40.3718 98.3674C39.6654 98.3674 39.149 98.8248 39.149 99.5146H39.6931C39.6913 99.1088 39.9531 98.8433 40.3607 98.8433C40.7443 98.8433 41.0357 99.0793 41.0357 99.4556C41.0357 99.7894 40.8365 100.029 40.4308 100.459L39.1527 101.783V102.196ZM43.614 102.248C44.3997 102.248 44.9548 101.801 44.9585 101.189C44.9548 100.713 44.621 100.313 44.1986 100.238V100.215C44.5657 100.127 44.8146 99.782 44.8183 99.3744C44.8146 98.7972 44.3056 98.3674 43.614 98.3674C42.915 98.3674 42.406 98.7972 42.4097 99.3744C42.406 99.7801 42.655 100.127 43.0294 100.215V100.238C42.5997 100.313 42.2659 100.713 42.2695 101.189C42.2659 101.801 42.821 102.248 43.614 102.248ZM43.614 101.781C43.1419 101.781 42.8431 101.53 42.8468 101.152C42.8431 100.759 43.1677 100.479 43.614 100.479C44.0529 100.479 44.3775 100.759 44.3812 101.152C44.3775 101.53 44.0806 101.781 43.614 101.781ZM43.614 100.024C43.2323 100.024 42.9611 99.782 42.9648 99.4224C42.9611 99.0683 43.223 98.834 43.614 98.834C43.9976 98.834 44.2595 99.0683 44.2632 99.4224C44.2595 99.782 43.9902 100.024 43.614 100.024Z" fill="#666666"/>
<path d="M53.6403 102.196H56.1263V101.707H54.4259V101.68L55.1765 100.894C55.8681 100.195 56.0655 99.8613 56.0655 99.439C56.0655 98.8322 55.5712 98.3674 54.8593 98.3674C54.153 98.3674 53.6366 98.8248 53.6366 99.5146H54.1806C54.1788 99.1088 54.4407 98.8433 54.8483 98.8433C55.2319 98.8433 55.5233 99.0793 55.5233 99.4556C55.5233 99.7894 55.3241 100.029 54.9183 100.459L53.6403 101.783V102.196ZM58.0813 98.3674C57.2882 98.3601 56.77 98.9299 56.77 99.6455C56.7718 100.367 57.2938 100.887 57.9485 100.887C58.3487 100.887 58.6917 100.691 58.8854 100.374H58.9149C58.913 101.243 58.5866 101.75 58.0333 101.75C57.6718 101.75 57.4395 101.529 57.3657 101.206H56.8032C56.8862 101.816 57.3583 102.248 58.0333 102.248C58.9112 102.248 59.4608 101.493 59.4608 100.171C59.4589 98.7916 58.7544 98.373 58.0813 98.3674ZM58.0831 98.8469C58.5202 98.8469 58.8429 99.2176 58.8429 99.6326C58.8448 100.053 58.5036 100.422 58.072 100.422C57.6386 100.422 57.3251 100.075 57.3233 99.6381C57.3233 99.1992 57.6497 98.8469 58.0831 98.8469Z" fill="#46BCFF"/>
<path d="M67.9409 102.248C68.7118 102.248 69.278 101.787 69.2762 101.16C69.278 100.682 68.9885 100.339 68.4868 100.262V100.232C68.8815 100.131 69.1379 99.8207 69.136 99.3965C69.1379 98.8414 68.6823 98.3674 67.9557 98.3674C67.2622 98.3674 66.7053 98.7861 66.6868 99.4002H67.2383C67.2512 99.0535 67.5776 98.8433 67.9483 98.8433C68.3338 98.8433 68.5864 99.0775 68.5846 99.426C68.5864 99.7912 68.2932 100.031 67.8745 100.031H67.5555V100.496H67.8745C68.3983 100.496 68.7008 100.761 68.7008 101.141C68.7008 101.508 68.3817 101.757 67.9372 101.757C67.5278 101.757 67.2088 101.547 67.1866 101.211H66.6075C66.6315 101.827 67.1774 102.248 67.9409 102.248ZM71.2883 102.259C72.1606 102.259 72.6715 101.547 72.6715 100.309C72.6715 99.0812 72.1532 98.3674 71.2883 98.3674C70.4215 98.3674 69.9051 99.0793 69.9032 100.309C69.9032 101.545 70.4141 102.257 71.2883 102.259ZM71.2883 101.766C70.7774 101.766 70.4694 101.254 70.4694 100.309C70.4713 99.3689 70.7793 98.8506 71.2883 98.8506C71.7954 98.8506 72.1053 99.3689 72.1053 100.309C72.1053 101.254 71.7973 101.766 71.2883 101.766Z" fill="#666666"/>
<path d="M81.5896 102.248C82.3605 102.248 82.9267 101.787 82.9248 101.16C82.9267 100.682 82.6371 100.339 82.1355 100.262V100.232C82.5301 100.131 82.7865 99.8207 82.7846 99.3965C82.7865 98.8414 82.331 98.3674 81.6043 98.3674C80.9109 98.3674 80.3539 98.7861 80.3355 99.4002H80.8869C80.8998 99.0535 81.2262 98.8433 81.5969 98.8433C81.9824 98.8433 82.2351 99.0775 82.2332 99.426C82.2351 99.7912 81.9418 100.031 81.5232 100.031H81.2041V100.496H81.5232C82.0469 100.496 82.3494 100.761 82.3494 101.141C82.3494 101.508 82.0303 101.757 81.5859 101.757C81.1764 101.757 80.8574 101.547 80.8353 101.211H80.2562C80.2801 101.827 80.826 102.248 81.5896 102.248ZM85.0549 98.4191H84.4998L83.5574 99.0351V99.581L84.4611 98.9908H84.4832V102.196H85.0549V98.4191Z" fill="#666666"/>
<path d="M4.85596 109.768L109.196 110.553" stroke="#D9D9D9" stroke-width="0.216394" stroke-linecap="round" stroke-linejoin="bevel"/>
<path d="M11.3675 22.9263V25.5599C11.3656 25.9232 11.2033 26.115 10.9083 26.115C10.6298 26.115 10.449 25.9416 10.4435 25.641H9.64862C9.64493 26.3953 10.1835 26.7549 10.8677 26.7549C11.6331 26.7549 12.155 26.292 12.1568 25.5599V22.9263H11.3675ZM14.6189 25.4972C14.6208 25.8771 14.3607 26.0763 14.0786 26.0763C13.7816 26.0763 13.5898 25.8679 13.588 25.534V23.8705H12.8023V25.6742C12.8042 26.3363 13.1915 26.7402 13.7613 26.7402C14.1874 26.7402 14.4935 26.5207 14.6208 26.1888H14.6503V26.7033H15.4046V23.8705H14.6189V25.4972ZM16.8187 25.0656C16.8205 24.7004 17.0381 24.4865 17.3554 24.4865C17.6707 24.4865 17.8607 24.6931 17.8588 25.0398V26.7033H18.6445V24.8996C18.6445 24.2394 18.2572 23.8336 17.667 23.8336C17.2465 23.8336 16.9422 24.0402 16.815 24.3703H16.7818V23.8705H16.033V26.7033H16.8187V25.0656ZM20.5547 26.7586C21.2555 26.7586 21.7276 26.4174 21.8383 25.8918L21.1117 25.8439C21.0324 26.0597 20.8295 26.1722 20.5676 26.1722C20.1748 26.1722 19.9258 25.9121 19.9258 25.4898V25.4879H21.8549V25.2722C21.8549 24.3095 21.2721 23.8336 20.5233 23.8336C19.6897 23.8336 19.1494 24.4256 19.1494 25.2998C19.1494 26.198 19.6824 26.7586 20.5547 26.7586ZM19.9258 25.0011C19.9424 24.6783 20.1877 24.4201 20.5363 24.4201C20.8774 24.4201 21.1135 24.6635 21.1153 25.0011H19.9258ZM23.5622 26.7033H26.2549V26.0504H24.6688V26.0246L25.2202 25.4842C25.9967 24.776 26.2051 24.422 26.2051 23.9922C26.2051 23.3375 25.6702 22.8746 24.8606 22.8746C24.0676 22.8746 23.5235 23.3486 23.5253 24.09H24.2833C24.2815 23.7285 24.5102 23.5072 24.8551 23.5072C25.187 23.5072 25.4342 23.7138 25.4342 24.0457C25.4342 24.3463 25.2497 24.5529 24.9067 24.883L23.5622 26.1279V26.7033ZM28.3144 26.7863C29.2642 26.7863 29.8378 26.0633 29.8397 24.8185C29.8415 23.5828 29.2606 22.8746 28.3144 22.8746C27.3665 22.8746 26.7911 23.581 26.7892 24.8185C26.7855 26.0597 27.3628 26.7845 28.3144 26.7863ZM28.3144 26.1242C27.881 26.1242 27.6007 25.689 27.6026 24.8185C27.6044 23.9609 27.8829 23.5293 28.3144 23.5293C28.7442 23.5293 29.0245 23.9609 29.0245 24.8185C29.0263 25.689 28.746 26.1242 28.3144 26.1242ZM30.4091 26.7033H33.1017V26.0504H31.5156V26.0246L32.0671 25.4842C32.8435 24.776 33.0519 24.422 33.0519 23.9922C33.0519 23.3375 32.5171 22.8746 31.7074 22.8746C30.9144 22.8746 30.3703 23.3486 30.3722 24.09H31.1302C31.1283 23.7285 31.357 23.5072 31.7019 23.5072C32.0339 23.5072 32.281 23.7138 32.281 24.0457C32.281 24.3463 32.0966 24.5529 31.7535 24.883L30.4091 26.1279V26.7033ZM35.3236 22.9263H34.573L33.6379 23.5183V24.2265L34.5029 23.6842H34.525V26.7033H35.3236V22.9263Z" fill="#46BCFF"/>
<path d="M10.2681 116.226C10.4043 116.356 10.4064 116.572 10.2728 116.704L9.23398 117.73C9.09359 117.869 9.09566 118.096 9.23855 118.233L10.2958 119.241C10.4318 119.371 10.4337 119.587 10.2999 119.719C10.172 119.845 9.96702 119.847 9.83682 119.723L8.27972 118.241C8.13647 118.105 8.1344 117.877 8.27515 117.738L9.80505 116.23C9.93297 116.104 10.1379 116.102 10.2681 116.226Z" fill="#666666"/>
<g filter="url(#filter2_d)">
<rect x="14" y="124.033" width="38.9804" height="25.658" rx="2.46706" transform="rotate(-0.0488201 14 124.033)" fill="#F7F7F7"/>
</g>
<path d="M33.4335 147.021L32.9869 147.023L32.974 144.866L32.3164 145.095L32.3142 144.716L33.3603 144.324L33.4175 144.324L33.4335 147.021ZM35.6326 145.884C35.4834 146.043 35.3085 146.124 35.1079 146.125C34.8717 146.126 34.6829 146.045 34.5417 145.881C34.4004 145.716 34.3289 145.498 34.3273 145.229C34.3263 145.052 34.361 144.891 34.4315 144.746C34.502 144.602 34.6029 144.489 34.7341 144.409C34.8653 144.328 35.0176 144.287 35.1911 144.286C35.4618 144.284 35.6772 144.384 35.8371 144.585C35.997 144.786 36.078 145.055 36.08 145.394L36.0808 145.519C36.0837 146.004 35.9763 146.374 35.7588 146.63C35.5413 146.886 35.2154 147.018 34.781 147.024L34.7275 147.024L34.7253 146.653L34.7899 146.653C35.0544 146.648 35.2571 146.583 35.3979 146.459C35.5386 146.334 35.6169 146.142 35.6326 145.884ZM35.2 145.774C35.2898 145.773 35.3739 145.747 35.4524 145.695C35.5308 145.642 35.5913 145.571 35.6338 145.479L35.6328 145.304C35.6316 145.106 35.5901 144.947 35.5081 144.827C35.4262 144.707 35.3206 144.647 35.1914 144.648C35.0622 144.648 34.9592 144.703 34.8823 144.81C34.8066 144.916 34.7693 145.051 34.7703 145.213C34.7713 145.382 34.8108 145.518 34.889 145.62C34.9671 145.723 35.0708 145.774 35.2 145.774Z" fill="#46BCFF"/>
<path d="M30.1489 131.008L38.1984 131.001C38.8362 131 39.3365 131.578 39.3371 132.284L39.3505 141.271C39.3511 141.977 38.846 142.555 38.2083 142.555L30.1587 142.562C29.5267 142.563 29.0091 141.986 29.0085 141.279L29.0008 132.293C29.0002 131.587 29.5168 131.008 30.1489 131.008ZM30.1554 138.711L32.4537 138.709C32.4546 139.774 33.231 140.634 34.179 140.633C35.127 140.632 35.9019 139.772 35.901 138.706L38.205 138.704L38.1995 132.285L30.15 132.292L30.1554 138.711ZM31.8764 135.5L33.0255 135.499L33.0238 133.573L35.3221 133.571L35.3237 135.497L36.4728 135.496L34.1768 138.065L31.8764 135.5Z" fill="#46BCFF"/>
<g filter="url(#filter3_d)">
<rect x="61" y="124.033" width="38.9804" height="25.658" rx="2.46706" transform="rotate(-0.0488201 61 124.033)" fill="#F7F7F7"/>
</g>
<path d="M81.026 146.017L79.219 146.028L79.2172 145.72L80.1066 144.738C80.2349 144.593 80.3259 144.473 80.3795 144.377C80.4343 144.279 80.4614 144.182 80.4608 144.084C80.46 143.956 80.4231 143.853 80.35 143.775C80.2782 143.697 80.1814 143.658 80.0596 143.659C79.9144 143.659 79.802 143.704 79.7226 143.793C79.6431 143.883 79.6038 144.004 79.6048 144.158L79.1562 144.16C79.1553 143.997 79.1913 143.85 79.2644 143.719C79.3386 143.587 79.4445 143.484 79.5819 143.41C79.7205 143.337 79.8802 143.3 80.0611 143.299C80.322 143.297 80.5279 143.362 80.6788 143.492C80.8309 143.622 80.9077 143.802 80.909 144.034C80.9098 144.168 80.8725 144.309 80.7971 144.457C80.7229 144.604 80.6002 144.771 80.4291 144.959L79.7762 145.667L81.0239 145.659L81.026 146.017ZM81.4796 144.682L81.6173 143.326L83.0607 143.318L83.063 143.705L81.9925 143.712L81.9225 144.354C82.0463 144.282 82.1864 144.246 82.3426 144.245C82.5986 144.243 82.7978 144.324 82.9403 144.487C83.084 144.65 83.1567 144.869 83.1583 145.146C83.16 145.419 83.0825 145.638 82.926 145.801C82.7694 145.963 82.5539 146.045 82.2795 146.047C82.0334 146.048 81.8288 145.98 81.6655 145.842C81.5035 145.703 81.415 145.518 81.4001 145.29L81.8339 145.287C81.8519 145.417 81.8992 145.517 81.9759 145.587C82.0526 145.656 82.1525 145.689 82.2756 145.689C82.4134 145.688 82.5201 145.638 82.5958 145.539C82.6728 145.44 82.7107 145.306 82.7097 145.136C82.7088 144.972 82.6655 144.843 82.5801 144.749C82.4946 144.654 82.3774 144.606 82.2285 144.607C82.1473 144.608 82.0785 144.619 82.022 144.642C81.9655 144.663 81.9042 144.705 81.8382 144.768L81.4796 144.682Z" fill="#46BCFF"/>
<g clip-path="url(#clip0)">
<path d="M84.7109 132.312H77.2891C76.5783 132.312 76 132.891 76 133.602V140.398C76 141.109 76.5783 141.688 77.2891 141.688H83.8125C84.1982 141.688 84.5609 141.537 84.8337 141.265L85.577 140.521C85.8498 140.248 86 139.886 86 139.5V133.602C86 132.891 85.4217 132.312 84.7109 132.312ZM85.1351 140.079L84.3917 140.823C84.3141 140.9 84.2236 140.96 84.125 141.001V140.086C84.125 139.935 84.2477 139.812 84.3984 139.812H85.3135C85.2729 139.911 85.2127 140.002 85.1351 140.079Z" fill="#FFE600"/>
<path d="M83.8125 136.375C83.8125 136.202 83.6726 136.062 83.5 136.062H78.5C78.3274 136.062 78.1875 136.202 78.1875 136.375C78.1875 136.548 78.3274 136.688 78.5 136.688H83.5C83.6726 136.688 83.8125 136.548 83.8125 136.375Z" fill="white"/>
<path d="M82.875 137.625H79.125C78.9524 137.625 78.8125 137.765 78.8125 137.938C78.8125 138.11 78.9524 138.25 79.125 138.25H82.875C83.0476 138.25 83.1875 138.11 83.1875 137.938C83.1875 137.765 83.0476 137.625 82.875 137.625Z" fill="white"/>
</g>
<g filter="url(#filter4_d)">
<rect x="61" y="158.033" width="38.9804" height="25.658" rx="2.46706" transform="rotate(-0.0488201 61 158.033)" fill="#F7F7F7"/>
</g>
<path d="M80.4841 179.896C80.3349 180.056 80.16 180.136 79.9595 180.138C79.7232 180.139 79.5344 180.058 79.3932 179.894C79.2519 179.728 79.1805 179.511 79.1789 179.242C79.1778 179.064 79.2125 178.904 79.2831 178.759C79.3536 178.615 79.4544 178.502 79.5856 178.421C79.7168 178.341 79.8691 178.3 80.0427 178.299C80.3134 178.297 80.5287 178.397 80.6886 178.598C80.8486 178.798 80.9295 179.068 80.9315 179.406L80.9323 179.532C80.9352 180.017 80.8279 180.387 80.6103 180.643C80.3928 180.899 80.0669 181.03 79.6326 181.037L79.579 181.037L79.5768 180.666L79.6414 180.666C79.906 180.66 80.1086 180.596 80.2494 180.472C80.3902 180.347 80.4684 180.155 80.4841 179.896ZM80.0515 179.786C80.1413 179.786 80.2255 179.76 80.3039 179.707C80.3824 179.655 80.4428 179.583 80.4854 179.492L80.4843 179.317C80.4831 179.119 80.4416 178.96 80.3597 178.839C80.2777 178.719 80.1722 178.66 80.043 178.66C79.9138 178.661 79.8107 178.715 79.7338 178.823C79.6582 178.929 79.6208 179.064 79.6218 179.226C79.6228 179.395 79.6624 179.53 79.7405 179.633C79.8186 179.736 79.9223 179.787 80.0515 179.786ZM83.0483 179.027C83.0491 179.158 83.0159 179.276 82.9489 179.38C82.8818 179.482 82.79 179.563 82.6735 179.623C82.8141 179.688 82.9223 179.776 82.9981 179.889C83.075 180.002 83.1139 180.129 83.1148 180.272C83.1162 180.508 83.0373 180.696 82.8782 180.836C82.719 180.975 82.5066 181.045 82.2408 181.047C81.9738 181.049 81.7592 180.98 81.5972 180.842C81.4364 180.704 81.3553 180.518 81.3539 180.283C81.3531 180.139 81.3904 180.009 81.4661 179.894C81.5417 179.779 81.6482 179.691 81.7856 179.628C81.6696 179.57 81.5775 179.49 81.5092 179.388C81.4421 179.285 81.4082 179.168 81.4074 179.036C81.4061 178.807 81.4788 178.625 81.6257 178.49C81.7725 178.355 81.9715 178.287 82.2225 178.286C82.4748 178.284 82.6751 178.35 82.8236 178.483C82.972 178.617 83.0469 178.798 83.0483 179.027ZM82.6661 180.253C82.6653 180.12 82.6247 180.013 82.5442 179.932C82.465 179.85 82.3602 179.81 82.2297 179.81C82.0993 179.811 81.9949 179.852 81.9167 179.934C81.8396 180.016 81.8015 180.124 81.8023 180.258C81.8031 180.389 81.8419 180.494 81.9186 180.573C81.9966 180.651 82.1033 180.69 82.2386 180.689C82.374 180.688 82.479 180.649 82.5536 180.573C82.6294 180.496 82.6669 180.389 82.6661 180.253ZM82.6017 179.046C82.601 178.929 82.5666 178.833 82.4985 178.758C82.4304 178.683 82.3391 178.645 82.2246 178.646C82.1102 178.646 82.02 178.683 81.954 178.756C81.8879 178.828 81.8553 178.926 81.856 179.05C81.8568 179.173 81.8906 179.271 81.9575 179.343C82.0256 179.415 82.1168 179.451 82.2313 179.45C82.3457 179.45 82.4359 179.413 82.502 179.34C82.5692 179.267 82.6025 179.169 82.6017 179.046Z" fill="#46BCFF"/>
<path d="M83.1757 171.934C84.4369 170.239 84.0151 167.892 82.2343 166.692C80.4534 165.492 77.9875 165.893 76.7267 167.588C75.4658 169.283 75.8873 171.63 77.6685 172.83C78.9395 173.687 80.62 173.753 81.9607 172.999L84.8737 175.755C85.1883 176.07 85.7116 176.083 86.0427 175.783C86.3738 175.484 86.387 174.986 86.0728 174.671C86.0629 174.661 86.0532 174.652 86.0427 174.642L83.1757 171.934ZM79.9488 172.191C78.5415 172.191 77.4006 171.106 77.3997 169.767C77.3994 168.427 78.5394 167.341 79.947 167.341C81.3524 167.34 82.4928 168.423 82.4955 169.761C82.4979 171.101 81.3585 172.189 79.9506 172.191C79.95 172.191 79.9497 172.191 79.9488 172.191Z" fill="#B4B1B1"/>
<g filter="url(#filter5_d)">
<rect x="14" y="158.033" width="38.9804" height="25.658" rx="2.46706" transform="rotate(-0.0488201 14 158.033)" fill="#F7F7F7"/>
</g>
<path d="M34.026 181.017L32.219 181.028L32.2172 180.72L33.1066 179.738C33.2349 179.593 33.3259 179.473 33.3795 179.377C33.4343 179.279 33.4614 179.182 33.4608 179.084C33.46 178.956 33.4231 178.853 33.35 178.775C33.2782 178.697 33.1814 178.658 33.0596 178.659C32.9144 178.659 32.802 178.704 32.7226 178.793C32.6431 178.883 32.6038 179.004 32.6048 179.158L32.1562 179.16C32.1553 178.997 32.1913 178.85 32.2644 178.719C32.3386 178.587 32.4445 178.484 32.5819 178.41C32.7205 178.337 32.8802 178.3 33.0611 178.299C33.322 178.297 33.5279 178.362 33.6788 178.492C33.8309 178.622 33.9077 178.802 33.909 179.034C33.9098 179.168 33.8725 179.309 33.7971 179.457C33.7229 179.604 33.6002 179.771 33.4291 179.959L32.7762 180.667L34.0239 180.659L34.026 181.017Z" fill="#46BCFF"/>
<path d="M35.7778 166L38.0001 167.818L35.7778 169.636" stroke="#4A9F5D" stroke-width="1.5" stroke-linecap="round" stroke-linejoin="round"/>
<path d="M28 170.545V169.636C28 169.154 28.2341 168.692 28.6509 168.351C29.0676 168.01 29.6329 167.818 30.2222 167.818H38" stroke="#4A9F5D" stroke-width="1.5" stroke-linecap="round" stroke-linejoin="round"/>
<path d="M30.2222 176L28 174.182L30.2222 172.364" stroke="#4A9F5D" stroke-width="1.5" stroke-linecap="round" stroke-linejoin="round"/>
<path d="M38 171.455V172.364C38 172.846 37.7659 173.308 37.3491 173.649C36.9324 173.99 36.3671 174.182 35.7778 174.182H28" stroke="#4A9F5D" stroke-width="1.5" stroke-linecap="round" stroke-linejoin="round"/>
<defs>
<filter id="filter0_d" x="12.0264" y="124" width="42.9496" height="29.6385" filterUnits="userSpaceOnUse" color-interpolation-filters="sRGB">
<feFlood flood-opacity="0" result="BackgroundImageFix"/>
<feColorMatrix in="SourceAlpha" type="matrix" values="0 0 0 0 0 0 0 0 0 0 0 0 0 0 0 0 0 0 127 0"/>
<feOffset dy="1.97365"/>
<feGaussianBlur stdDeviation="0.986824"/>
<feColorMatrix type="matrix" values="0 0 0 0 0 0 0 0 0 0 0 0 0 0 0 0 0 0 0.25 0"/>
<feBlend mode="normal" in2="BackgroundImageFix" result="effect1_dropShadow"/>
<feBlend mode="normal" in="SourceGraphic" in2="effect1_dropShadow" result="shape"/>
</filter>
<filter id="filter1_d" x="58.0264" y="153" width="42.9496" height="29.6385" filterUnits="userSpaceOnUse" color-interpolation-filters="sRGB">
<feFlood flood-opacity="0" result="BackgroundImageFix"/>
<feColorMatrix in="SourceAlpha" type="matrix" values="0 0 0 0 0 0 0 0 0 0 0 0 0 0 0 0 0 0 127 0"/>
<feOffset dy="1.97365"/>
<feGaussianBlur stdDeviation="0.986824"/>
<feColorMatrix type="matrix" values="0 0 0 0 0 0 0 0 0 0 0 0 0 0 0 0 0 0 0.25 0"/>
<feBlend mode="normal" in2="BackgroundImageFix" result="effect1_dropShadow"/>
<feBlend mode="normal" in="SourceGraphic" in2="effect1_dropShadow" result="shape"/>
</filter>
<filter id="filter2_d" x="12.0264" y="124" width="42.9496" height="29.6385" filterUnits="userSpaceOnUse" color-interpolation-filters="sRGB">
<feFlood flood-opacity="0" result="BackgroundImageFix"/>
<feColorMatrix in="SourceAlpha" type="matrix" values="0 0 0 0 0 0 0 0 0 0 0 0 0 0 0 0 0 0 127 0"/>
<feOffset dy="1.97365"/>
<feGaussianBlur stdDeviation="0.986824"/>
<feColorMatrix type="matrix" values="0 0 0 0 0 0 0 0 0 0 0 0 0 0 0 0 0 0 0.25 0"/>
<feBlend mode="normal" in2="BackgroundImageFix" result="effect1_dropShadow"/>
<feBlend mode="normal" in="SourceGraphic" in2="effect1_dropShadow" result="shape"/>
</filter>
<filter id="filter3_d" x="59.0264" y="124" width="42.9496" height="29.6385" filterUnits="userSpaceOnUse" color-interpolation-filters="sRGB">
<feFlood flood-opacity="0" result="BackgroundImageFix"/>
<feColorMatrix in="SourceAlpha" type="matrix" values="0 0 0 0 0 0 0 0 0 0 0 0 0 0 0 0 0 0 127 0"/>
<feOffset dy="1.97365"/>
<feGaussianBlur stdDeviation="0.986824"/>
<feColorMatrix type="matrix" values="0 0 0 0 0 0 0 0 0 0 0 0 0 0 0 0 0 0 0.25 0"/>
<feBlend mode="normal" in2="BackgroundImageFix" result="effect1_dropShadow"/>
<feBlend mode="normal" in="SourceGraphic" in2="effect1_dropShadow" result="shape"/>
</filter>
<filter id="filter4_d" x="59.0264" y="158" width="42.9496" height="29.6385" filterUnits="userSpaceOnUse" color-interpolation-filters="sRGB">
<feFlood flood-opacity="0" result="BackgroundImageFix"/>
<feColorMatrix in="SourceAlpha" type="matrix" values="0 0 0 0 0 0 0 0 0 0 0 0 0 0 0 0 0 0 127 0"/>
<feOffset dy="1.97365"/>
<feGaussianBlur stdDeviation="0.986824"/>
<feColorMatrix type="matrix" values="0 0 0 0 0 0 0 0 0 0 0 0 0 0 0 0 0 0 0.25 0"/>
<feBlend mode="normal" in2="BackgroundImageFix" result="effect1_dropShadow"/>
<feBlend mode="normal" in="SourceGraphic" in2="effect1_dropShadow" result="shape"/>
</filter>
<filter id="filter5_d" x="12.0264" y="158" width="42.9496" height="29.6385" filterUnits="userSpaceOnUse" color-interpolation-filters="sRGB">
<feFlood flood-opacity="0" result="BackgroundImageFix"/>
<feColorMatrix in="SourceAlpha" type="matrix" values="0 0 0 0 0 0 0 0 0 0 0 0 0 0 0 0 0 0 127 0"/>
<feOffset dy="1.97365"/>
<feGaussianBlur stdDeviation="0.986824"/>
<feColorMatrix type="matrix" values="0 0 0 0 0 0 0 0 0 0 0 0 0 0 0 0 0 0 0.25 0"/>
<feBlend mode="normal" in2="BackgroundImageFix" result="effect1_dropShadow"/>
<feBlend mode="normal" in="SourceGraphic" in2="effect1_dropShadow" result="shape"/>
</filter>
<clipPath id="clip0">
<rect width="10" height="10" fill="white" transform="translate(76 132)"/>
</clipPath>
</defs>
</svg>
